<svg width="41" height="26" viewBox="0 0 41 26" fill="none" xmlns="http://www.w3.org/2000/svg">
<path d="M26.7839 24.7739C26.5139 25.2239 26.0264 25.5014 25.5014 25.5014H18.5189L13.9289 16.3214C13.8089 16.0739 13.5539 15.9089 13.2689 15.9089C13.0139 15.9164 12.7289 16.0589 12.6014 16.3064L7.70392 25.5014H1.50142C0.976423 25.5014 0.488923 25.2239 0.218923 24.7739C-0.0585773 24.3239 -0.0735774 23.7614 0.181423 23.2964L12.1814 0.796367C12.4364 0.308867 12.9464 0.00136661 13.5014 0.00136661C14.0564 0.00136661 14.5664 0.308867 14.8214 0.796367L26.8214 23.2964C27.0764 23.7614 27.0614 24.3239 26.7839 24.7739ZM40.2839 24.7739C40.0139 25.2239 39.5264 25.5014 39.0014 25.5014H28.9439C29.3939 24.4589 29.3489 23.2514 28.8089 22.2389L18.0239 2.01887C18.6764 2.16137 19.4189 2.25137 20.2514 2.25137C23.9489 2.25137 25.9439 0.436367 25.9664 0.421367C26.3039 0.0913669 26.7689 -0.0511331 27.2414 0.016367C27.6989 0.091367 28.1039 0.383867 28.3214 0.796367L40.3214 23.2964C40.5764 23.7614 40.5614 24.3239 40.2839 24.7739Z" fill="white"/>
</svg>
