<svg width="50" height="38" viewBox="0 0 50 38" fill="none" xmlns="http://www.w3.org/2000/svg">
<path d="M36.9806 5.22733e-05C36.8478 0.00395827 36.715 0.0313023 36.59 0.0859903C34.5353 1.01177 22.1955 2.61724 15.4259 0.445365C17.5509 6.5938 22.5158 19.9883 30.8908 37.3985L49.3283 30.9415C49.59 30.8516 49.8009 30.6602 49.9103 30.4063C50.0236 30.1563 50.0275 29.8711 49.922 29.6172L37.922 0.61724C37.8205 0.36724 37.6212 0.171927 37.3712 0.0703653C37.2423 0.0195833 37.1095 -0.00385373 36.9806 5.22733e-05ZM13.4845 0.17974C13.4376 0.21099 13.383 0.234428 13.34 0.277397C13.3361 0.281303 13.3283 0.285208 13.3244 0.289115C13.2462 0.36724 13.1798 0.457083 13.1251 0.562552L0.101708 27.3829C-0.0271985 27.6446 -0.0311047 27.9532 0.0860828 28.2188C0.199364 28.4883 0.429833 28.6915 0.711083 28.7774C0.76577 28.793 6.45718 30.5235 7.8439 30.9727C8.29702 31.1172 8.78921 30.9297 9.02358 30.5157C10.672 27.6094 12.0431 23.879 12.9259 21.1602C13.8087 24.629 15.34 29.8711 17.4142 33.9493C17.5353 34.1836 17.7423 34.3633 17.9962 34.4454L28.6876 37.9532C28.6876 37.9532 28.6916 37.9493 28.6916 37.9532C28.7892 37.9805 28.8947 38.0001 29.0001 38.0001C29.0705 38.0001 29.1447 37.9805 29.2189 37.9649C20.4689 19.7501 15.4416 5.92193 13.4845 0.17974Z" fill="white"/>
</svg>
