<svg width="42" height="39" viewBox="0 0 42 39" fill="none" xmlns="http://www.w3.org/2000/svg">
<path d="M27.0475 37.6125C23.1665 32.0025 20.9855 22.8785 20.9855 22.8785C20.9855 22.8785 18.8045 32.0025 14.9235 37.6125C14.3695 38.4145 13.4475 38.8785 12.4725 38.8785H2.0005C0.381503 38.8785 -0.563497 37.0585 0.367503 35.7345C8.7475 23.8225 16.1675 7.7115 19.1715 1.1655C19.8845 -0.3885 22.0845 -0.3885 22.7975 1.1655C25.8015 7.7115 33.2215 23.8215 41.6015 35.7345C42.5345 37.0585 41.5895 38.8785 39.9705 38.8785H29.4985C28.5235 38.8785 27.6015 38.4145 27.0475 37.6125Z" fill="white"/>
</svg>
