<svg width="28" height="28" viewBox="0 0 28 28" fill="none" xmlns="http://www.w3.org/2000/svg">
<path d="M4.99905 0C4.68411 0 4.38675 0.148438 4.19827 0.400391L1.19827 4.40039C1.07767 4.56055 1.01028 4.75391 1.00101 4.95508L0.00100751 26.9551C-0.0111995 27.2275 0.0879215 27.4941 0.276398 27.6914C0.465363 27.8896 0.726105 28 0.999054 28H2.99905V14C3.00809 13.8912 3.01743 13.7827 3.0264 13.6738L4.0264 7.67188C4.18723 6.70709 5.02103 6 5.99905 6H8.91312L8.99515 5.08984C9.00491 4.97754 8.9971 4.86621 8.96976 4.75781L7.96976 0.757812C7.85843 0.3125 7.45804 0 6.99905 0H4.99905ZM21.9991 0C21.5401 0 21.1397 0.3125 21.0284 0.757812L20.0284 4.75781C20.0088 4.83691 19.9991 4.91797 19.9991 5V6H21.9991C22.9771 6 23.8109 6.70709 23.9717 7.67188L24.9717 13.6719C24.9809 13.7822 24.9899 13.8916 24.9991 14.002V28H25.9991C26.5337 28 26.9727 27.5791 26.9971 27.0449L27.9971 5.04492C28.0074 4.81348 27.939 4.58594 27.7998 4.40039L24.7998 0.400391C24.6114 0.148438 24.314 0 23.9991 0H21.9991ZM5.99905 7C5.51028 7 5.09311 7.35382 5.01273 7.83594L4.01273 13.8379C4.00821 13.8923 4.00357 13.9456 3.99905 14V28H5.99905V21.0098C6.01242 20.8746 6.0267 20.7406 6.04007 20.6055L7.03812 15.6074C7.18314 14.8818 7.71292 14.2988 8.42093 14.0859C8.60355 14.0293 8.80179 14 9.00101 14C9.52591 14 10.0401 14.2148 10.4131 14.5879L10.9991 15.1738V11C10.9991 10.8926 10.9823 10.7855 10.9483 10.6836L9.94827 7.68359C9.81222 7.27533 9.42935 7 8.99905 7H5.99905ZM18.9991 7C18.5224 7 18.1121 7.33539 18.0186 7.80273L17.0186 12.8047C17.0121 12.87 17.0055 12.9347 16.9991 13V14.1719L17.585 13.5859C17.9639 13.207 18.4654 12.998 18.9971 12.998C19.1968 12.998 19.396 13.0283 19.5869 13.0879C20.2862 13.2988 20.815 13.8818 20.96 14.6074L21.96 19.6094C21.9729 19.7399 21.9861 19.8694 21.9991 20V28H23.9991V14C23.9945 13.9456 23.9899 13.8923 23.9854 13.8379L22.9854 7.83594C22.905 7.35352 22.4881 7 21.9991 7H18.9991ZM19.0205 13.998C18.7516 13.9917 18.4876 14.0974 18.292 14.293L16.292 16.293C16.1044 16.4806 15.9991 16.7347 15.9991 17V28H20.9991V20L20.9795 19.8047L19.9795 14.8047C19.9073 14.4434 19.6411 14.1494 19.2881 14.043C19.1996 14.0154 19.1102 14.0002 19.0205 13.998ZM8.97757 15C8.88798 15.0021 8.79813 15.0156 8.70999 15.043C8.35696 15.1494 8.09085 15.4434 8.01859 15.8047L7.01859 20.8047L6.99905 21.002V28H11.9991V18.002C11.9991 17.7367 11.8937 17.4806 11.7061 17.293L9.70609 15.293C9.51053 15.0974 9.24632 14.9938 8.97757 15Z" fill="white"/>
</svg>
