<svg width="47" height="45" viewBox="0 0 47 45" fill="none" xmlns="http://www.w3.org/2000/svg">
<path d="M9.5002 0C7.0192 0 5.0002 2.019 5.0002 4.5C5.0002 6.981 7.0192 9 9.5002 9C11.9812 9 14.0002 6.981 14.0002 4.5C14.0002 2.019 11.9812 0 9.5002 0ZM45.0197 0.0527344C44.7597 0.050143 44.5089 0.148921 44.3205 0.328125L29.8635 13.707C29.4856 12.5724 28.3456 11.8307 27.1193 12.0293L21.5568 12.8848C18.3908 10.8438 18.3254 10.8053 18.2854 10.7812C17.3864 10.2423 16.3699 9.98295 15.3049 10.002C14.9159 10.013 14.5265 10.0654 14.1955 10.1484L8.26192 11.4961C6.32092 11.9121 4.59369 13.1083 3.52169 14.7793L0.396688 19.6504C0.0176876 20.2414 -0.0968124 20.9645 0.0841876 21.6445L2.08419 29.1445C2.34021 30.1027 3.11935 30.7758 4.03145 30.9512L0.111531 38.541C-0.0101988 38.7767 -0.0333155 39.0511 0.0472666 39.3038C0.127849 39.5566 0.305529 39.7669 0.541219 39.8887C0.77691 40.0104 1.0513 40.0335 1.30404 39.9529C1.55677 39.8724 1.76715 39.6947 1.88888 39.459L6.47286 30.582L28.7111 17.4668C28.7728 17.4307 28.8304 17.3882 28.883 17.3398L45.6799 1.79688C45.8299 1.66211 45.9357 1.48514 45.9834 1.28917C46.0311 1.0932 46.0184 0.887398 45.947 0.698775C45.8756 0.510152 45.7488 0.347521 45.5834 0.232228C45.4179 0.116934 45.2214 0.0543659 45.0197 0.0527344ZM45.0041 8.99805C44.9478 8.99852 44.8916 9.00374 44.8361 9.01367C44.8361 9.01367 43.0071 9.34529 41.1975 11.0156C39.3878 12.686 37.5254 15.7071 37.0061 20.9004C36.9865 21.0342 36.9942 21.1706 37.0289 21.3013C37.0635 21.4321 37.1243 21.5544 37.2076 21.661C37.2908 21.7676 37.3949 21.8561 37.5133 21.9214C37.6318 21.9866 37.7623 22.0271 37.8969 22.0404C38.0315 22.0538 38.1674 22.0397 38.2963 21.999C38.4253 21.9584 38.5447 21.892 38.6473 21.8038C38.7499 21.7157 38.8335 21.6077 38.8932 21.4863C38.9528 21.3649 38.9873 21.2327 38.9943 21.0977C39.475 16.2919 41.1126 13.8138 42.5529 12.4844C43.9933 11.155 45.1643 10.9863 45.1643 10.9863C45.4137 10.9475 45.6392 10.8158 45.7956 10.6176C45.952 10.4194 46.0276 10.1695 46.0073 9.91783C45.9871 9.66621 45.8724 9.43156 45.6863 9.26096C45.5002 9.09037 45.2565 8.99645 45.0041 8.99805ZM44.9807 13.9922C44.7893 13.9977 44.6036 14.0581 44.4455 14.166C44.4455 14.166 44.0892 14.4266 43.7443 14.8672C43.3995 15.3078 42.9788 15.9862 42.5725 17.002C41.7599 19.0335 41.0002 22.4071 41.0002 27.998V30.998C40.9983 31.1306 41.0228 31.2621 41.0722 31.3851C41.1216 31.5081 41.195 31.62 41.288 31.7143C41.3811 31.8087 41.492 31.8837 41.6142 31.9348C41.7365 31.986 41.8677 32.0123 42.0002 32.0123C42.1327 32.0123 42.2639 31.986 42.3862 31.9348C42.5084 31.8837 42.6193 31.8087 42.7124 31.7143C42.8054 31.62 42.8788 31.5081 42.9282 31.3851C42.9776 31.2621 43.0021 31.1306 43.0002 30.998V27.998C43.0002 22.589 43.7405 19.4646 44.4279 17.7461C44.7716 16.8869 45.1009 16.3777 45.3186 16.0996C45.5362 15.8215 45.5549 15.8301 45.5549 15.8301C45.7376 15.7111 45.8765 15.5357 45.9503 15.3306C46.0242 15.1254 46.029 14.9018 45.9639 14.6936C45.8989 14.4855 45.7677 14.3043 45.5902 14.1777C45.4126 14.0511 45.1986 13.9859 44.9807 13.9922ZM16.5275 15.9766L19.6447 17.6016C20.1587 17.9336 20.7771 18.0687 21.3811 17.9727L24.8127 17.4453L18.1486 21.375L16.5275 15.9766ZM7.45528 18.8633L9.70333 26.3555L6.9377 27.9863C6.92849 27.9426 6.92787 27.8991 6.91622 27.8555L5.19942 21.4219L7.45528 18.8633ZM23.2678 22.998L12.4025 29.4062C13.1445 29.7812 13.9787 29.995 14.8557 30C15.0117 30 15.1691 29.9955 15.3361 29.9805C15.4121 29.9745 24.758 28.998 24.758 28.998L28.8791 33.1211C29.4651 33.7071 30.2322 34 31.0002 34C31.7682 34 32.5353 33.7071 33.1213 33.1211C34.2933 31.9501 34.2933 30.0509 33.1213 28.8789L28.4143 24.1719C27.6593 23.4159 26.6541 22.998 25.5861 22.998H23.2678ZM37.9846 23.9844C37.7197 23.9885 37.4673 24.0976 37.2827 24.2876C37.0982 24.4777 36.9966 24.7332 37.0002 24.998C37.0002 27.7972 36.7465 31.4577 35.676 34.7031C34.6055 37.9485 32.7782 40.7204 29.6057 42.0801C29.4838 42.1311 29.3732 42.2057 29.2804 42.2997C29.1875 42.3937 29.1142 42.5051 29.0647 42.6276C29.0151 42.75 28.9903 42.8811 28.9917 43.0132C28.9931 43.1453 29.0207 43.2758 29.0728 43.3972C29.1249 43.5186 29.2005 43.6285 29.2954 43.7204C29.3902 43.8124 29.5023 43.8847 29.6252 43.9332C29.7481 43.9816 29.8794 44.0052 30.0115 44.0026C30.1436 44 30.2738 43.9712 30.3947 43.918C34.2222 42.2776 36.3949 38.9059 37.5744 35.3301C38.7539 31.7542 39.0002 27.9139 39.0002 24.998C39.002 24.8643 38.977 24.7315 38.9266 24.6075C38.8762 24.4836 38.8014 24.371 38.7067 24.2765C38.612 24.182 38.4993 24.1074 38.3752 24.0572C38.2512 24.0071 38.1184 23.9823 37.9846 23.9844ZM22.0764 31.2891C17.7694 31.7381 15.5658 31.9687 15.5158 31.9727C15.2838 31.9937 15.0687 32 14.8557 32C14.7437 31.999 14.6356 31.9777 14.5236 31.9727L17.0002 34.668V41C17.0002 42.657 18.3432 44 20.0002 44C21.6572 44 23.0002 42.657 23.0002 41V33.5C23.0002 32.817 22.767 32.156 22.342 31.625C22.337 31.619 22.2364 31.4911 22.0764 31.2891ZM41.9846 33.9844C41.7197 33.9885 41.4673 34.0976 41.2827 34.2876C41.0982 34.4777 40.9966 34.7332 41.0002 34.998C41.0002 37.8314 40.302 39.6357 39.6428 40.7344C38.9836 41.8331 38.4455 42.166 38.4455 42.166C38.334 42.2379 38.2379 42.3312 38.1628 42.4405C38.0877 42.5499 38.0351 42.6731 38.008 42.8029C37.981 42.9328 37.9801 43.0667 38.0053 43.197C38.0306 43.3272 38.0814 43.4511 38.155 43.5615C38.2286 43.6719 38.3234 43.7665 38.4339 43.8399C38.5444 43.9133 38.6684 43.9639 38.7987 43.9889C38.929 44.0139 39.0629 44.0127 39.1928 43.9855C39.3226 43.9582 39.4457 43.9054 39.5549 43.8301C39.5549 43.8301 40.5168 43.165 41.3576 41.7637C42.1984 40.3623 43.0002 38.1647 43.0002 34.998C43.002 34.8643 42.977 34.7315 42.9266 34.6075C42.8762 34.4836 42.8014 34.371 42.7067 34.2765C42.612 34.182 42.4993 34.1074 42.3752 34.0572C42.2512 34.0071 42.1184 33.9823 41.9846 33.9844Z" fill="white"/>
</svg>
