<svg width="40" height="47" viewBox="0 0 40 47" fill="none" xmlns="http://www.w3.org/2000/svg">
<path d="M16.0039 0C13.2383 0 11 2.23828 11 5C11 7.76172 13.2383 10 16.0039 10C18.7617 10 21 7.76172 21 5C21 2.23828 18.7617 0 16.0039 0ZM39 0C38.5156 0 38.1289 0.355469 38.0352 0.8125H38.0156C36.5547 8.37109 33.1211 16.5664 24 20.8086L24.0156 20.8438L24 20.8164V23.0586L14.9961 26.9727L15 27L10.2422 40.8281C10.082 41.1992 10 41.5977 10 42C10 43.6562 11.3438 45 13 45C14.3555 45 15.543 44.0898 15.8945 42.7773L20 31L28.3945 27.3906L29.0039 34.0625C29.0352 35.6914 30.3672 37 32 37C33.6562 37 35 35.6562 35 34C35 33.9492 34.9961 33.8984 34.9922 33.8438H35.0039L33.9883 22.7109C33.9961 22.6406 34 22.5703 34 22.5C34 21.1211 32.8789 20 31.5 20C31.0547 20 30.6172 20.1211 30.2344 20.3477L25.0156 22.6211L24.9766 22.5547C34.7187 17.957 38.4688 9.02734 39.9844 1.1875H39.9648C39.9766 1.125 40 1.06641 40 1C40 0.449219 39.5547 0 39 0ZM24 20.8086V16.8125L33.4219 5.12891L33.4062 5.11719C33.7891 4.66406 34 4.08984 34 3.5C34 2.12109 32.8789 1 31.5 1C30.5977 1 29.7695 1.48828 29.3281 2.27344L22 11L8.23047 15.7305L4.70312 10.3203C4.26953 9.50781 3.42188 9 2.5 9C1.12109 9 0 10.1211 0 11.5C0 12.043 0.179688 12.5742 0.507813 13.0078L5.17188 20.1992C5.43359 20.6914 5.94531 21 6.5 21C6.64844 21 6.79297 20.9766 6.9375 20.9375L6.94141 20.9336C6.94531 20.9336 6.94531 20.9336 6.94531 20.9336L14 19L14.7383 24.9023L24 20.8203V20.8086ZM25 31.0234L23 31.7773V45C22.9961 45.3594 23.1836 45.6953 23.4961 45.8789C23.8086 46.0586 24.1914 46.0586 24.5039 45.8789C24.8164 45.6953 25.0039 45.3594 25 45V31.0234Z" fill="white"/>
</svg>
