<svg width="47" height="46" viewBox="0 0 47 46" fill="none" xmlns="http://www.w3.org/2000/svg">
<path d="M22.5208 0V17.25H24.4792V0H22.5208ZM20.5625 11.8781C16.4431 12.9225 13.192 16.097 12.1248 20.125H16.2633C17.0627 18.2121 18.608 16.6772 20.5625 15.8986V11.8781ZM26.4375 11.8781V15.8986C28.3958 16.6772 29.9411 18.2121 30.7367 20.125H34.879C33.8119 16.097 30.5569 12.9225 26.4375 11.8781ZM23.5038 20.125C21.8821 20.125 20.5625 21.4128 20.5625 23C20.5625 24.5872 21.8821 25.875 23.5038 25.875C25.1256 25.875 26.3878 24.5872 26.3878 23C26.3878 21.4128 25.1256 20.125 23.5038 20.125ZM0 22.0417V23.9583H17.625V22.0417H0ZM29.375 22.0417V23.9583H47V22.0417H29.375ZM12.121 25.875C13.1882 29.903 16.4431 33.0775 20.5625 34.1219V30.1014C18.6042 29.3228 17.0589 27.7879 16.2633 25.875H12.121ZM30.7558 25.875C29.9602 27.7917 28.392 29.304 26.4375 30.0827V34.1369C30.5531 33.0924 33.7966 29.9067 34.8637 25.875H30.7558ZM22.5208 28.75V46H24.4792V28.75H22.5208Z" fill="black"/>
</svg>
