<svg width="40" height="40" viewBox="0 0 40 40" fill="none" xmlns="http://www.w3.org/2000/svg">
<path d="M35 10C37.7614 10 40 7.76142 40 5C40 2.23858 37.7614 0 35 0C32.2386 0 30 2.23858 30 5C30 7.76142 32.2386 10 35 10Z" fill="white"/>
<path d="M13.3335 16.6665C13.3335 18.5075 11.841 19.9985 10 19.9985V1.6665C10 0.7455 9.2545 0 8.3335 0C7.4125 0 6.667 0.7455 6.667 1.6665V26.6665C4.826 26.6665 3.3335 25.1745 3.3335 23.3335V15C3.3335 14.079 2.588 13.3335 1.667 13.3335C0.7455 13.3335 0 14.079 0 15V23.3335C0 27.015 2.985 30 6.6665 30V40H10V23.3335C13.6815 23.3335 16.6665 20.3465 16.6665 16.667V8.3335C16.6665 7.4125 15.921 6.667 15 6.667C14.079 6.667 13.3335 7.4125 13.3335 8.3335V16.6665Z" fill="white"/>
<path d="M40 24.4435C35.614 18.5955 31.6665 13.3335 31.6665 13.3335L11.6665 40H40V24.4435Z" fill="white"/>
<path d="M26.6665 6.6665H20V10H26.6665V6.6665Z" fill="white"/>
<path d="M23.333 0H16.6665V3.3335H23.333V0Z" fill="white"/>
</svg>
