<svg width="61" height="56" viewBox="0 0 61 56" fill="none" xmlns="http://www.w3.org/2000/svg">
<path fill-rule="evenodd" clip-rule="evenodd" d="M43 30C43 22.8203 37.1797 17 30 17C22.8203 17 17 22.8203 17 30H43Z" fill="white"/>
<path d="M30.0001 0.727295C29.1819 0.727295 28.6365 1.27275 28.6365 2.09093V11.6364C28.6365 12.4546 29.1819 13 30.0001 13C30.8183 13 31.3637 12.4546 31.3637 11.6364V2.09093C31.3637 1.27275 30.8183 0.727295 30.0001 0.727295ZM21.6638 7.79317C21.487 7.80169 21.3069 7.85336 21.1365 7.95563C20.4547 8.22836 20.0456 9.04494 20.4547 9.72676L21.9541 13.546C22.2268 14.0915 22.6365 14.3637 23.1819 14.3637C23.3183 14.3637 23.5915 14.3642 23.7279 14.2278C24.4097 13.9551 24.8188 13.1359 24.4097 12.454L22.9103 8.63745C22.7057 8.12609 22.1944 7.7676 21.6638 7.79317ZM38.3364 7.8491C37.8059 7.84271 37.2945 8.12609 37.09 8.63745L35.5905 12.454C35.1814 13.1359 35.5905 13.9551 36.2723 14.2278C36.4087 14.3642 36.5456 14.3637 36.8183 14.3637C37.3637 14.3637 37.9097 14.0915 38.0461 13.546L39.5456 9.72676C39.8183 9.04494 39.5456 8.22836 38.8637 7.95563C38.6933 7.88745 38.5132 7.85123 38.3364 7.8491ZM11.7268 9.72676C11.3859 9.72676 11.0461 9.86419 10.7734 10.1369C10.2279 10.6824 10.2279 11.5011 10.7734 12.0465L16.4996 17.7727C16.7723 18.0455 17.183 18.1829 17.4557 18.1829C17.7284 18.1829 18.1365 18.0455 18.4092 17.7727C18.9547 17.2273 18.9547 16.4086 18.4092 15.8631L12.683 10.1369C12.4103 9.86419 12.0678 9.72676 11.7268 9.72676ZM48.2734 9.72676C47.9325 9.72676 47.5899 9.86419 47.3172 10.1369L41.591 15.8631C41.0456 16.4086 41.0456 17.2273 41.591 17.7727C41.8637 18.0455 42.1354 18.1829 42.5445 18.1829C42.9536 18.1829 43.2279 18.0455 43.5006 17.7727L49.2268 12.0465C49.7723 11.5011 49.7723 10.6824 49.2268 10.1369C48.9541 9.86419 48.6143 9.72676 48.2734 9.72676ZM50.1617 19.6557C49.9848 19.6643 49.8075 19.7159 49.637 19.8182L45.8178 21.3177C45.1359 21.5904 44.7268 22.4096 45.1359 23.0915C45.4087 23.6369 45.8183 23.9091 46.3637 23.9091C46.5001 23.9091 46.7734 23.9096 46.9097 23.7733L50.7263 22.2738C51.4081 22.0011 51.8172 21.1818 51.4081 20.5C51.2036 19.9887 50.6922 19.6302 50.1617 19.6557ZM9.83853 19.7143C9.30799 19.7079 8.79663 19.9887 8.59208 20.5C8.31935 21.1818 8.59208 22.0011 9.2739 22.2738L13.0905 23.7733C13.2268 23.9096 13.5001 23.9091 13.6365 23.9091C14.1819 23.9091 14.7279 23.6369 14.8643 23.0915C15.137 22.4096 14.8643 21.5904 14.1825 21.3177L10.3632 19.8182C10.1928 19.75 10.0154 19.7165 9.83853 19.7143ZM2.72738 28C1.9092 28 1.36374 28.5455 1.36374 29.3637C1.36374 30.1818 1.9092 30.7273 2.72738 30.7273H12.2728C13.091 30.7273 13.6365 30.1818 13.6365 29.3637C13.6365 28.5455 13.091 28 12.2728 28H2.72738ZM47.7274 28C46.9092 28 46.3637 28.5455 46.3637 29.3637C46.3637 30.1818 46.9092 30.7273 47.7274 30.7273H57.2728C58.091 30.7273 58.6365 30.1818 58.6365 29.3637C58.6365 28.5455 58.091 28 57.2728 28H47.7274ZM10.9252 33.4892C7.19222 33.4892 3.47738 34.4762 0.681925 36.4535C0.000107169 36.8626 -0.137322 37.6813 0.271769 38.3631C0.68086 39.0449 1.49957 39.1824 2.18139 38.7733C6.95412 35.5006 14.8637 35.5006 19.7728 38.7733C22.6365 40.6824 26.3178 41.7722 30.1359 41.7722C33.9541 41.7722 37.6354 40.8187 40.499 38.7733C45.2718 35.5006 53.1814 35.5006 58.0905 38.7733C58.7723 39.1824 59.591 39.0449 60.0001 38.3631C60.1365 37.6813 59.9996 36.8626 59.4541 36.4535C53.7268 32.499 44.4547 32.499 38.8637 36.4535C34.091 39.7262 26.1814 39.7262 21.2723 36.4535C18.4087 34.4762 14.6581 33.4892 10.9252 33.4892ZM48.4145 40.2275C47.6752 40.2466 46.9438 40.3063 46.2279 40.4086C45.5461 40.5449 45.0001 41.2262 45.0001 41.908C45.1365 42.5899 45.8178 43.1359 46.4996 43.1359C49.0905 42.7268 51.8172 43 54.1354 43.6818H54.5456C55.091 43.6818 55.6365 43.2738 55.9092 42.7284C56.0456 42.0465 55.6375 41.3631 54.9557 41.0904C52.9103 40.4768 50.6326 40.1699 48.4145 40.2275ZM12.4087 40.2728C11.5905 40.2728 10.9092 40.8182 10.9092 41.6364C10.9092 42.4546 11.4552 42.9995 12.137 43.1359C15.0006 43.2722 17.5915 44.2278 19.637 45.5915C22.5006 47.5006 26.3183 48.4546 30.0001 48.4546C33.6819 48.4546 37.4996 47.5011 40.3632 45.4556C41.045 45.0465 41.1825 44.2278 40.7734 43.546C40.3643 42.8642 39.5456 42.7268 38.8637 43.1359C34.091 46.4086 26.1814 46.4086 21.2723 43.1359C18.8178 41.4995 15.8178 40.4091 12.4087 40.2728ZM49.091 47.0909C45.8183 47.0909 42.8183 47.7728 40.2274 49.1364C39.5456 49.5455 39.2723 50.3642 39.6814 51.046C39.9541 51.4551 40.3637 51.7278 40.9092 51.7278C41.1819 51.7278 41.3183 51.7284 41.591 51.592C43.6365 50.5011 46.3637 49.8182 49.091 49.8182C49.9092 49.8182 50.4547 49.2727 50.4547 48.4546C50.4547 47.6364 49.9092 47.0909 49.091 47.0909ZM20.215 49.8875C19.874 49.9556 19.5672 50.1591 19.3627 50.5C18.9536 51.1818 19.091 52.0006 19.7728 52.4096C22.6365 54.3187 26.3178 55.4086 30.1359 55.4086C32.045 55.4086 34.0915 55.1364 36.0006 54.5909C36.6825 54.3182 37.0905 53.6375 36.9541 52.9556C36.545 52.0011 35.7263 51.5909 35.0445 51.8637C30.4081 53.2273 24.8178 52.5444 21.2723 50.0899C20.9314 49.8853 20.5559 49.8193 20.215 49.8875Z" fill="white"/>
</svg>
