<svg width="49" height="46" viewBox="0 0 49 46" fill="none" xmlns="http://www.w3.org/2000/svg">
<path d="M47.6213 18.21L24.6213 0.21C24.2513 -0.07 23.7513 -0.07 23.3813 0.21L0.381323 18.21C-0.0486775 18.55 -0.128677 19.18 0.211323 19.62C0.551323 20.05 1.18132 20.13 1.62132 19.79L3.00132 18.71V45C3.00132 45.55 3.45132 46 4.00132 46H27.0013V30H37.0013V46H44.0013C44.5513 46 45.0013 45.55 45.0013 45V18.71L46.3813 19.79C46.5713 19.93 46.7813 20 47.0013 20C47.3013 20 47.5913 19.87 47.7913 19.62C48.1313 19.18 48.0513 18.55 47.6213 18.21ZM21.0013 29H13.0013V21H21.0013V29Z" fill="white"/>
</svg>
