<svg width="50" height="45" viewBox="0 0 50 45" fill="none" xmlns="http://www.w3.org/2000/svg">
<path d="M14.6472 0.6831C13.4303 0.7656 12.4078 1.51857 11.9644 2.65295L1.04358 30.8572C4.50858 28.3822 10.6253 25.0625 18.5144 25.0625C23.8357 25.0625 28.7751 27.4031 33.9932 29.8884C34.264 30.016 34.5401 30.1427 34.813 30.2711L34.817 30.2812C35.0792 30.4045 35.3437 30.5191 35.6066 30.6417C36.1527 30.8973 36.6952 31.156 37.2401 31.4051L37.232 31.3849C40.8084 32.993 44.3884 34.3437 47.6875 34.3437C48.1928 34.3437 48.6777 34.4151 49.1417 34.5492C48.8561 33.9005 48.6278 33.3526 48.2978 32.5854L37.9933 8.56249C37.5396 7.48999 36.5299 6.77787 35.3749 6.69537C34.2199 6.61287 33.1152 7.16942 32.5068 8.16973L29.5439 13.04L27.3606 7.82934C27.01 7.00434 26.3313 6.36553 25.4753 6.08709C24.6194 5.80865 23.6908 5.91307 22.9174 6.37713L20.6071 7.75884L17.5637 2.2622C16.9656 1.21033 15.8435 0.610912 14.6472 0.6831ZM15.0219 6.33081C15.06 6.32668 15.1029 6.34399 15.1246 6.38317C15.1462 6.42236 17.7709 11.131 18.0391 11.626C18.3072 12.121 18.7717 12.4706 19.308 12.615C19.8545 12.7594 20.4205 12.6781 20.9052 12.3894C21.3899 12.1006 23.8936 10.5982 23.9184 10.5827C23.9431 10.5672 23.9712 10.5634 23.9969 10.5706C24.0269 10.5789 24.054 10.6001 24.0674 10.631L26.6395 16.7722C25.5938 16.5278 25.2814 16.4684 24.0191 16.1982C22.631 15.9001 21.1967 15.8835 19.8035 16.1619C19.7756 16.1671 19.7451 16.1748 19.6987 16.1841C18.1003 16.5038 16.4093 16.1628 15.048 15.2656L12.2322 13.3884L14.9393 6.39526C14.9537 6.3571 14.9868 6.33493 15.0219 6.33081ZM34.9761 12.1477C35.0153 12.1477 35.0533 12.1689 35.0708 12.2101L38.4465 20.0915C36.3681 20.3681 34.1025 20.1657 32.4041 19.866L31.5138 17.743L34.8895 12.1981C34.9091 12.1651 34.9431 12.1477 34.9761 12.1477ZM18.5184 28.1562C10.847 28.1562 5.0622 31.6712 2.29639 33.7657C1.01454 34.7381 0.25 36.275 0.25 37.8806V39.5C0.25 42.3432 2.56309 44.6562 5.40625 44.6562H44.5938C47.373 44.6562 49.6449 42.4458 49.746 39.6913L49.75 39.5C49.75 38.3615 48.826 37.4375 47.6875 37.4375C42.6859 37.4375 37.5922 35.0189 32.6659 32.68C27.7675 30.3535 23.1415 28.1562 18.5184 28.1562Z" fill="white"/>
</svg>
