<svg width="53" height="44" viewBox="0 0 53 44" fill="none" xmlns="http://www.w3.org/2000/svg">
<path d="M25.906 0.00396483C25.5525 0.0203649 25.2097 0.130246 24.9126 0.322395C24.6154 0.514545 24.3746 0.782084 24.2146 1.09771L14.3044 20.7305L11.2029 18.4024C10.9531 18.2145 10.6628 18.0877 10.3552 18.0323C10.0476 17.9768 9.73129 17.9942 9.43163 18.0831C9.13198 18.172 8.85732 18.3298 8.62969 18.544C8.40205 18.7582 8.22778 19.0228 8.12086 19.3165L0.120855 41.3165C0.0110411 41.6185 -0.0243616 41.9426 0.0176449 42.2613C0.0596514 42.5799 0.17783 42.8838 0.362173 43.1471C0.546516 43.4103 0.791593 43.6253 1.07665 43.7738C1.36171 43.9223 1.67835 43.9999 1.99976 44.0001H50.2654C50.5746 43.9997 50.8794 43.9277 51.1561 43.7897C51.4327 43.6517 51.6736 43.4515 51.8598 43.2047C52.0461 42.9579 52.1726 42.6713 52.2294 42.3674C52.2862 42.0635 52.2718 41.7506 52.1873 41.4532L45.9216 19.4532C45.8654 19.2534 45.7784 19.0637 45.6638 18.8907L41.6638 12.8907C41.4997 12.6445 41.2829 12.4379 41.0292 12.2856C40.7756 12.1334 40.4913 12.0393 40.1968 12.0101C39.9024 11.981 39.6052 12.0175 39.3266 12.1171C39.048 12.2167 38.7949 12.3768 38.5857 12.586L34.6443 16.5274L27.8279 1.18756C27.6639 0.81973 27.3928 0.509959 27.0498 0.298779C26.7069 0.0875997 26.3083 -0.0151533 25.906 0.00396483ZM25.8865 6.66803L31.1834 18.5899L29.9998 20.0001L25.9998 16.0001L21.9998 22.0001L19.4373 19.4376L25.8865 6.66803ZM39.6912 17.1368L42.1638 20.8477L42.7537 22.918L39.9998 22.0001L37.9998 26.0001L35.7849 21.043L39.6912 17.1368ZM10.9568 23.2188L13.8123 25.3633C13.9333 25.4547 14.0644 25.532 14.2029 25.5938L11.9998 30.0001L9.03101 28.5157L10.9568 23.2188Z" fill="white"/>
</svg>
