<svg width="81" height="49" viewBox="0 0 81 49" fill="none" xmlns="http://www.w3.org/2000/svg">
<path fill-rule="evenodd" clip-rule="evenodd" d="M77.3179 48.1236H58.1859L57.1867 46.5328L38.7139 17.106L48.4124 1.71272C49.0836 0.647982 50.2686 0 51.5452 0C52.8214 0 54.0069 0.647982 54.6777 1.71272L80.4505 42.6177C81.1521 43.7308 81.1836 45.1294 80.5334 46.2722C79.8832 47.4153 78.6525 48.1236 77.3179 48.1236ZM53.7366 5.68068L61.4754 19.3363L54.6309 16.4952L51.6042 19.8245L48.8802 16.4952L42.9336 17.4413L42.8706 17.3297L49.4721 5.68068C49.9289 4.87493 50.7355 4.38456 51.6044 4.38456C52.473 4.38456 53.28 4.87493 53.7366 5.68068Z" fill="white"/>
<path fill-rule="evenodd" clip-rule="evenodd" d="M42.9546 48.1236H3.68178C2.34798 48.1236 1.11849 47.4164 0.468034 46.275C-0.182913 45.1337 -0.152968 43.7364 0.546088 42.6229L20.1824 11.3425C20.8526 10.2749 22.0396 9.62476 23.3182 9.62476C24.5657 9.62476 25.7247 10.2448 26.4023 11.2662L49.5396 48.1236H42.9592H42.9546ZM25.3938 13.4027L32.2421 25.487L22.0945 22.8513L14.9354 25.7734L14.5279 25.0517L21.1293 13.4027C21.5862 12.597 22.3927 12.1066 23.2616 12.1066C24.1303 12.1066 24.9372 12.597 25.3938 13.4027Z" fill="white"/>
</svg>
