<svg width="25" height="25" viewBox="0 0 25 25" fill="none" xmlns="http://www.w3.org/2000/svg">
<path d="M14.5 0C13.8369 0 13.2011 0.263392 12.7322 0.732233C12.2634 1.20107 12 1.83696 12 2.5C12 3.16304 12.2634 3.79893 12.7322 4.26777C13.2011 4.73661 13.8369 5 14.5 5C14.8283 5 15.1534 4.93534 15.4567 4.8097C15.76 4.68406 16.0356 4.49991 16.2677 4.26777C16.4999 4.03562 16.684 3.76002 16.8097 3.45671C16.9353 3.15339 17 2.8283 17 2.5C17 1.83696 16.7366 1.20107 16.2677 0.732233C15.7989 0.263392 15.163 0 14.5 0ZM5.5449 3.00781C4.74165 3.03856 3.94267 3.36864 3.30467 3.99414L0.560528 6.74805C-0.120472 7.52305 -0.239862 8.71744 0.535138 9.39844C1.04114 9.92944 1.68972 10.0957 2.30272 9.92969C2.52772 9.33169 2.86806 8.77836 3.33006 8.31836C3.35906 8.28436 3.39181 8.25075 3.42381 8.21875L7.81248 3.82227C7.15548 3.24577 6.34815 2.97706 5.5449 3.00781ZM10.5 5C9.86011 4.99987 9.2204 5.24392 8.7324 5.73242H8.73045L4.83787 9.63281V9.63477C4.57464 9.86905 4.36391 10.1563 4.21951 10.4778C4.07511 10.7993 4.00029 11.1476 3.99998 11.5C4.00037 12.0408 4.17608 12.5668 4.50076 12.9993C4.82544 13.4317 5.28159 13.7472 5.80076 13.8984V13.9004L10.6523 15.5918L13.2793 20.5938C13.3234 20.72 13.3925 20.8362 13.4824 20.9353C13.5722 21.0344 13.6811 21.1145 13.8024 21.1708C13.9238 21.2271 14.0552 21.2585 14.1889 21.2631C14.3227 21.2677 14.4559 21.2454 14.5809 21.1976C14.7058 21.1498 14.8199 21.0773 14.9164 20.9846C15.0128 20.8919 15.0897 20.7808 15.1424 20.6578C15.1952 20.5348 15.2227 20.4026 15.2234 20.2688C15.2241 20.135 15.1979 20.0024 15.1465 19.8789L13.1074 13.8789C13.023 13.6291 12.8433 13.4227 12.6074 13.3047L9.42772 11.7148L9.1699 11.5723L11.6289 9.03125L14.0039 9.86914L14.0254 9.88086C14.1713 9.95926 14.3344 10.0002 14.5 10H19C19.1325 10.0019 19.2641 9.97739 19.387 9.92798C19.51 9.87857 19.6219 9.8052 19.7163 9.71216C19.8107 9.61912 19.8856 9.50824 19.9367 9.38599C19.9879 9.26373 20.0142 9.13253 20.0142 9C20.0142 8.86747 19.9879 8.73627 19.9367 8.61401C19.8856 8.49176 19.8107 8.38088 19.7163 8.28784C19.6219 8.1948 19.51 8.12143 19.387 8.07202C19.2641 8.02261 19.1325 7.99813 19 8H15.3691L11.8789 5.41602C11.4618 5.13945 10.9816 5.00009 10.5 5ZM20.5 11C18.0265 11 16 13.0266 16 15.5C16 17.9734 18.0265 20 20.5 20C22.9734 20 25 17.9734 25 15.5C25 13.0266 22.9734 11 20.5 11ZM20.5 13C21.8925 13 23 14.1074 23 15.5C23 16.8926 21.8925 18 20.5 18C19.1074 18 18 16.8926 18 15.5C18 14.1074 19.1074 13 20.5 13ZM5.49998 16C3.02654 16 0.999981 18.0266 0.999981 20.5C0.999981 22.9734 3.02654 25 5.49998 25C7.97342 25 9.99998 22.9734 9.99998 20.5C9.99998 18.0266 7.97342 16 5.49998 16ZM5.49998 18C6.89254 18 7.99998 19.1074 7.99998 20.5C7.99998 21.8926 6.89254 23 5.49998 23C4.10742 23 2.99998 21.8926 2.99998 20.5C2.99998 19.1074 4.10742 18 5.49998 18Z" fill="white"/>
</svg>
