<svg width="50" height="44" viewBox="0 0 50 44" fill="none" xmlns="http://www.w3.org/2000/svg">
<path d="M15.9902 3.3893e-05C15.5702 0.0100339 15.2005 0.27019 15.0605 0.66019L10.7305 12.7891L9.83008 11.4493C9.62008 11.1293 9.24914 10.9598 8.86914 11.0098C8.48914 11.0598 8.17078 11.3197 8.05078 11.6797L2.76953 27.5098C4.24953 26.5598 5.96906 26 7.78906 26C11.6391 26 13.7798 27.2996 15.5098 28.3496C17.0298 29.2696 18.23 30 21 30H27C27.46 30 27.9003 30.0206 28.3203 30.0606L23.0293 16.4004L16.9297 0.640659C16.7797 0.250659 16.4402 -0.00996611 15.9902 3.3893e-05ZM37 5.00003C34.794 5.00003 33 6.79403 33 9.00003C33 11.206 34.794 13 37 13C39.206 13 41 11.206 41 9.00003C41 6.79403 39.206 5.00003 37 5.00003ZM26 11C25.6 11 25.2401 11.2394 25.0801 11.6094L24.1562 13.7676L30.6152 30.4473C33.4042 31.1563 35.0928 32.6116 36.3008 33.8106L26.9199 11.6094C26.7599 11.2394 26.4 11 26 11ZM42.9844 19C42.8589 19.0023 42.735 19.0281 42.6191 19.0762C42.6145 19.0781 42.6101 19.0801 42.6055 19.0821C42.4889 19.1319 42.3828 19.2035 42.293 19.293L38.293 23.293C38.197 23.3851 38.1204 23.4955 38.0676 23.6176C38.0148 23.7398 37.9869 23.8712 37.9856 24.0042C37.9842 24.1373 38.0094 24.2693 38.0597 24.3924C38.11 24.5156 38.1844 24.6275 38.2784 24.7216C38.3725 24.8157 38.4844 24.89 38.6076 24.9403C38.7308 24.9906 38.8627 25.0158 38.9958 25.0145C39.1288 25.0131 39.2603 24.9852 39.3824 24.9324C39.5045 24.8797 39.6149 24.803 39.707 24.7071L42 22.4141V25.586L37.293 30.293C37.197 30.3851 37.1204 30.4955 37.0676 30.6176C37.0148 30.7398 36.9869 30.8712 36.9856 31.0042C36.9842 31.1373 37.0094 31.2693 37.0597 31.3924C37.11 31.5156 37.1844 31.6275 37.2784 31.7216C37.3725 31.8157 37.4844 31.89 37.6076 31.9403C37.7308 31.9906 37.8627 32.0158 37.9958 32.0145C38.1288 32.0131 38.2603 31.9852 38.3824 31.9324C38.5045 31.8797 38.6149 31.803 38.707 31.7071L42 28.4141V36H44V28.4141L47.293 31.7071C47.3851 31.803 47.4955 31.8797 47.6176 31.9324C47.7397 31.9852 47.8712 32.0131 48.0042 32.0145C48.1373 32.0158 48.2692 31.9906 48.3924 31.9403C48.5156 31.89 48.6275 31.8157 48.7216 31.7216C48.8156 31.6275 48.89 31.5156 48.9403 31.3924C48.9906 31.2693 49.0158 31.1373 49.0144 31.0042C49.0131 30.8712 48.9852 30.7398 48.9324 30.6176C48.8796 30.4955 48.803 30.3851 48.707 30.293L44 25.586V22.4141L46.293 24.7071C46.3851 24.803 46.4955 24.8797 46.6176 24.9324C46.7397 24.9852 46.8712 25.0131 47.0042 25.0145C47.1373 25.0158 47.2692 24.9906 47.3924 24.9403C47.5156 24.89 47.6275 24.8157 47.7216 24.7216C47.8156 24.6275 47.89 24.5156 47.9403 24.3924C47.9906 24.2693 48.0158 24.1373 48.0144 24.0042C48.0131 23.8712 47.9852 23.7398 47.9324 23.6176C47.8796 23.4955 47.803 23.3851 47.707 23.293L43.707 19.293C43.6182 19.2046 43.5135 19.1337 43.3984 19.084C43.3907 19.0806 43.3829 19.0775 43.375 19.0743C43.2553 19.0254 43.1273 19.0002 42.998 19C42.9935 19 42.9889 19 42.9844 19ZM8.0332 28.0059C5.9042 27.9849 3.95264 28.7775 2.43164 30.2735C0.885641 31.7935 0 33.9018 0 36.0528V43.961L50 44V43C50 40.243 47.757 38 45 38H40C37.633 38 36.5963 36.9482 35.2812 35.6192C33.6882 34.0062 31.705 32 27 32H21C17.676 32 16.1177 31.0576 14.4707 30.0586C12.8457 29.0736 11.1682 28.0579 8.0332 28.0059Z" fill="white"/>
</svg>
