<svg width="42" height="33" viewBox="0 0 42 33" fill="none" xmlns="http://www.w3.org/2000/svg">
<path d="M13.5 0.25C11.2897 0.25 9.26481 1.3828 8.21631 3.20605C7.80831 3.9148 7.32669 5.07113 7.06494 5.83838C6.82494 6.49538 3.15831 14.6988 0.903809 19.7148L0.921387 19.7075C0.336832 20.862 0 22.1437 0 23.5C0 28.4628 4.374 32.5 9.75 32.5C15.126 32.5 19.5 28.4628 19.5 23.5V20.7446C19.903 20.6192 20.4224 20.5 21 20.5C21.5796 20.5 22.0975 20.6193 22.5 20.7446V23.5C22.5 28.4628 26.874 32.5 32.25 32.5C37.626 32.5 42 28.4628 42 23.5C42 22.1437 41.6632 20.862 41.0786 19.7075L41.0962 19.7148C38.8417 14.6981 35.1757 6.49517 34.9395 5.84717C34.674 5.07092 34.1917 3.9148 33.7837 3.20605C32.7352 1.3828 30.7103 0.25 28.5 0.25C25.2714 0.25 22.637 2.65479 22.5117 5.65381C22.0528 5.56336 21.5459 5.5 21 5.5C20.4541 5.5 19.9472 5.56336 19.4883 5.65381C19.363 2.65479 16.7286 0.25 13.5 0.25ZM21 8.5C21.5796 8.5 22.0975 8.61927 22.5 8.74463V11.6509C22.0442 11.5618 21.5411 11.5 21 11.5C20.4589 11.5 19.9558 11.5618 19.5 11.6509V8.74463C19.903 8.61924 20.4224 8.5 21 8.5ZM9.75 17.5C13.4722 17.5 16.5 20.1918 16.5 23.5C16.5 26.8082 13.4722 29.5 9.75 29.5C6.02775 29.5 3 26.8082 3 23.5C3 20.1918 6.02775 17.5 9.75 17.5ZM32.25 17.5C35.9722 17.5 39 20.1918 39 23.5C39 26.8082 35.9722 29.5 32.25 29.5C28.5278 29.5 25.5 26.8082 25.5 23.5C25.5 20.1918 28.5278 17.5 32.25 17.5Z" fill="white"/>
</svg>
