<svg width="50" height="50" viewBox="0 0 50 50" fill="none" xmlns="http://www.w3.org/2000/svg">
<path d="M45.5061 3.95516C44.1402 4.00574 42.9377 5.10008 42.5002 6.50008L38.0002 26.5001L37.5998 28.0997C37.0998 30.3997 34.9994 32.0001 32.6994 32.0001C32.2994 32.0001 31.9998 32.0005 31.5998 31.9005C29.9998 31.5005 28.6998 30.3005 28.0998 28.9005C27.2998 29.6005 26.2002 30.0001 25.0002 30.0001C24.6002 30.0001 24.3006 30.0005 23.9006 29.9005C22.3006 29.5005 21.0006 28.4005 20.4006 26.9005C19.6006 27.6005 18.501 28.0001 17.301 28.0001C17.001 28.0001 16.5998 28.0009 16.0998 27.8009C14.9998 27.6009 14.1006 26.9993 13.4006 26.1993C13.4006 26.1993 8.09941 20.5993 7.69941 20.1993C6.79941 19.3993 5.60097 18.8997 4.30097 19.0997C2.70097 19.3997 1.30019 20.7005 1.00019 22.4005C0.800192 23.4005 1.0998 24.3993 1.5998 25.1993C1.6998 25.1993 1.69941 25.3009 1.69941 25.3009C2.19941 25.9009 10.1998 38.0005 14.0998 43.9005C15.3998 45.8005 17.6006 47.0001 19.9006 47.0001H34.0002C37.2002 47.0001 40.001 44.7001 40.801 41.5001L48.5002 7.59969C48.9002 5.99969 47.7998 4.30008 46.0998 4.00008C45.8998 3.96258 45.7012 3.94793 45.5061 3.95516ZM19.6018 10.0137C18.2182 9.96043 16.9498 10.913 16.5998 12.4005L14.301 22.4005C13.901 24.0005 14.8998 25.6001 16.5998 26.0001C18.1998 26.4001 19.7994 25.3993 20.1994 23.6993L22.5002 13.6993C22.9002 11.9993 21.7994 10.3997 20.1994 10.0997C19.9994 10.0497 19.7994 10.0214 19.6018 10.0137ZM27.4025 11.9141C26.0189 11.8608 24.7506 12.8134 24.4006 14.3009L22.0998 24.3009C21.6998 25.9009 22.7006 27.5005 24.4006 27.9005C26.1006 28.3005 27.6002 27.2997 28.0002 25.5997L30.301 15.5997C30.601 13.9997 29.6002 12.4001 28.0002 12.0001C27.8002 11.9501 27.6002 11.9218 27.4025 11.9141ZM35.0744 13.9141C33.643 13.8608 32.4498 14.8134 32.0998 16.3009L29.801 26.4005C29.401 28.0005 30.3998 29.6001 32.0998 30.0001C33.6998 30.4001 35.2994 29.3993 35.6994 27.6993L38.0002 17.5997C38.4002 15.9997 37.3994 14.4001 35.6994 14.0001C35.4869 13.9501 35.2789 13.9218 35.0744 13.9141Z" fill="white"/>
</svg>
