<svg width="49" height="44" viewBox="0 0 49 44" fill="none" xmlns="http://www.w3.org/2000/svg">
<path d="M43.6669 0.444458C40.7256 0.444458 38.3335 2.83646 38.3335 5.77779C38.3335 8.71912 40.7256 11.1111 43.6669 11.1111C46.6082 11.1111 49.0002 8.71912 49.0002 5.77779C49.0002 2.83646 46.6082 0.444458 43.6669 0.444458ZM9.30056 1.33856C8.58854 1.38553 7.91237 1.773 7.52626 2.43578C6.9067 3.49533 7.26531 4.85704 8.32487 5.47571L21.2537 13.0156L29.5888 17.9288L31.7919 16.4132C31.8207 16.4101 31.8482 16.4029 31.877 16.3993L32.9846 19.6788H32.9863C33.1571 20.1952 33.508 20.6384 33.9898 20.9132L41.2329 25.0417L41.2381 25.033C41.5627 25.2188 41.9333 25.3333 42.3335 25.3333C43.5593 25.3333 44.5558 24.3369 44.5558 23.1111C44.5558 22.2856 44.0986 21.5724 43.429 21.1892L43.4342 21.1806L37.1773 17.6146L36.5263 11.6667C36.5452 11.4842 36.5558 11.2986 36.5558 11.1111C36.5558 8.16979 34.1638 5.77779 31.2224 5.77779C30.0852 5.77779 29.0317 6.13785 28.1651 6.74654L28.1634 6.74481L24.1912 9.58508L10.5645 1.63717C10.1678 1.40617 9.72778 1.31037 9.30056 1.33856ZM18.4238 14.3715L17.8509 14.849C15.8571 16.5165 16.111 19.6547 18.3474 20.9792L24.4499 24.5903L20.7346 29.1788C12.3884 24.55 3.18251 19.4462 3.18251 19.4462L0.595703 24.1094C0.595703 24.1094 28.5702 39.6305 31.1044 41.0278C33.859 42.5469 35.9061 43.1111 38.6617 43.1111C41.6137 43.1111 43.6106 42.2939 43.8283 42.1997C45.1715 41.6237 45.7885 40.0794 45.2276 38.7292C44.6659 37.3807 43.1057 36.738 41.7537 37.2865C41.7412 37.2918 40.5123 37.7778 38.6617 37.7778C37.0652 37.7778 35.8586 37.5585 33.6808 36.3577C33.0821 36.0278 29.2089 33.8779 26.4759 32.3629L32.6356 26.9705C33.2783 26.4078 33.6132 25.5729 33.5349 24.7222C33.4576 23.8725 32.9766 23.111 32.2433 22.6736L31.8665 22.4497L31.87 22.4462L18.4238 14.3715Z" fill="white"/>
</svg>
