<svg width="28" height="27" viewBox="0 0 28 27" fill="none" xmlns="http://www.w3.org/2000/svg">
<path d="M12.0001 0C11.4481 0 11.0001 0.448 11.0001 1V2.04102C5.67216 2.39186 2.952 5.44253 2.295 6.29297C2.12053 6.47116 2.01889 6.70809 2.01 6.95732C2.00111 7.20654 2.08561 7.45011 2.24694 7.64028C2.40827 7.83046 2.6348 7.95353 2.88215 7.98539C3.12949 8.01724 3.37981 7.95559 3.58407 7.8125C3.58407 7.8125 3.87301 7.60346 4.2911 7.38867C4.70919 7.17388 5.2477 7 5.50008 7C5.75247 7 6.29098 7.17388 6.70907 7.38867C7.12715 7.60346 7.4161 7.8125 7.4161 7.8125C7.56258 7.91797 7.73488 7.98182 7.91472 7.9973C8.09456 8.01277 8.27523 7.97929 8.43758 7.90039C8.43758 7.90039 9.68545 7.336 11.0001 7.10352V12.6426L12.0001 13.3008L13.0001 12.6426V7.10352C14.3147 7.336 15.5626 7.90039 15.5626 7.90039C15.7224 7.97806 15.9 8.01176 16.0771 7.99803C16.2542 7.9843 16.4245 7.92363 16.5704 7.82227C16.5704 7.82227 16.8784 7.60991 17.3067 7.39258C17.7351 7.17524 18.2861 7 18.5001 7C18.714 7 19.2651 7.17524 19.6934 7.39258C20.1218 7.60991 20.4298 7.82227 20.4298 7.82227C20.6352 7.96127 20.885 8.01902 21.1306 7.9843C21.3762 7.94958 21.6002 7.82488 21.759 7.63437C21.9179 7.44387 22.0004 7.20115 21.9904 6.9533C21.9805 6.70544 21.8788 6.47011 21.7052 6.29297C21.0482 5.44253 18.328 2.39186 13.0001 2.04102V1C13.0001 0.448 12.5521 0 12.0001 0ZM23.0001 11C22.4696 11 21.9609 11.2107 21.5859 11.5858C21.2108 11.9609 21.0001 12.4696 21.0001 13C21.0001 13.5304 21.2108 14.0391 21.5859 14.4142C21.9609 14.7893 22.4696 15 23.0001 15C23.5305 15 24.0392 14.7893 24.4143 14.4142C24.7894 14.0391 25.0001 13.5304 25.0001 13C25.0001 12.4696 24.7894 11.9609 24.4143 11.5858C24.0392 11.2107 23.5305 11 23.0001 11ZM6.97469 12C6.82359 12.0038 6.67532 12.0418 6.54102 12.1112C6.40672 12.1805 6.28989 12.2794 6.1993 12.4004L3.1993 16.4004C3.06986 16.5735 2.99997 16.7839 3.00008 17H2.00008C1.86757 16.9981 1.73601 17.0226 1.61304 17.072C1.49007 17.1214 1.37815 17.1948 1.28378 17.2878C1.18941 17.3809 1.11447 17.4918 1.06333 17.614C1.01218 17.7363 0.98584 17.8675 0.98584 18C0.98584 18.1325 1.01218 18.2637 1.06333 18.386C1.11447 18.5082 1.18941 18.6191 1.28378 18.7122C1.37815 18.8052 1.49007 18.8786 1.61304 18.928C1.73601 18.9774 1.86757 19.0019 2.00008 19H12.0001H12.252C13.1829 19 14.1054 18.8151 14.9649 18.4531L18.8653 16.8125C18.9721 16.7692 19.0705 16.7077 19.1563 16.6309C19.417 16.4462 19.6296 16.2017 19.7764 15.918C19.9232 15.6342 19.9999 15.3195 20.0001 15C20.0001 14.4696 19.7894 13.9609 19.4143 13.5858C19.0392 13.2107 18.5305 13 18.0001 13C17.7359 13.0001 17.4744 13.0525 17.2306 13.1543L17.2266 13.1484L12.0001 15L7.65047 12.2383L7.62508 12.2188C7.44087 12.0714 7.2105 11.9939 6.97469 12ZM7.18172 14.4277L9.93172 17H5.25008L7.18172 14.4277ZM25.9747 15.9961C25.851 16.0003 25.7291 16.0275 25.6153 16.0762L13.7989 21H2.00008C1.86757 20.9981 1.73601 21.0226 1.61304 21.072C1.49007 21.1214 1.37815 21.1948 1.28378 21.2878C1.18941 21.3809 1.11447 21.4918 1.06333 21.614C1.01218 21.7363 0.98584 21.8675 0.98584 22C0.98584 22.1325 1.01218 22.2637 1.06333 22.386C1.11447 22.5082 1.18941 22.6191 1.28378 22.7122C1.37815 22.8052 1.49007 22.8786 1.61304 22.928C1.73601 22.9774 1.86757 23.0019 2.00008 23H4.00008V25C3.99821 25.1325 4.02269 25.2641 4.0721 25.387C4.12152 25.51 4.19488 25.6219 4.28792 25.7163C4.38097 25.8107 4.49184 25.8856 4.6141 25.9368C4.73635 25.9879 4.86756 26.0142 5.00008 26.0142C5.13261 26.0142 5.26381 25.9879 5.38607 25.9368C5.50833 25.8856 5.6192 25.8107 5.71224 25.7163C5.80529 25.6219 5.87865 25.51 5.92806 25.387C5.97748 25.2641 6.00196 25.1325 6.00008 25V23H13.9532H14.0528H22.0001V25C21.9982 25.1325 22.0227 25.2641 22.0721 25.387C22.1215 25.51 22.1949 25.6219 22.2879 25.7163C22.381 25.8107 22.4918 25.8856 22.6141 25.9368C22.7364 25.9879 22.8676 26.0142 23.0001 26.0142C23.1326 26.0142 23.2638 25.9879 23.3861 25.9368C23.5083 25.8856 23.6192 25.8107 23.7122 25.7163C23.8053 25.6219 23.8786 25.51 23.9281 25.387C23.9775 25.2641 24.002 25.1325 24.0001 25V23H26.0001C26.1326 23.0019 26.2642 22.9774 26.3871 22.928C26.5101 22.8786 26.622 22.8052 26.7164 22.7122C26.8108 22.6191 26.8857 22.5082 26.9368 22.386C26.988 22.2637 27.0143 22.1325 27.0143 22C27.0143 21.8675 26.988 21.7363 26.9368 21.614C26.8857 21.4918 26.8108 21.3809 26.7164 21.2878C26.622 21.1948 26.5101 21.1214 26.3871 21.072C26.2642 21.0226 26.1326 20.9981 26.0001 21H19.002L26.3848 17.9238C26.6036 17.8362 26.7844 17.6741 26.8953 17.4662C27.0062 17.2583 27.0402 17.0178 26.9911 16.7873C26.9421 16.5568 26.8132 16.3511 26.6272 16.2063C26.4413 16.0615 26.2102 15.9871 25.9747 15.9961Z" fill="white"/>
</svg>
