<svg width="47" height="38" viewBox="0 0 47 38" fill="none" xmlns="http://www.w3.org/2000/svg">
<path d="M9.01492 0C8.5553 -6.84897e-09 8.10017 0.0905303 7.67553 0.266422C7.25089 0.442313 6.86505 0.700121 6.54005 1.02513C6.21504 1.35013 5.95724 1.73597 5.78134 2.16061C5.60545 2.58525 5.51492 3.04037 5.51492 3.5C5.51492 3.95963 5.60545 4.41475 5.78134 4.83939C5.95724 5.26403 6.21504 5.64987 6.54005 5.97487C6.86505 6.29988 7.25089 6.55769 7.67553 6.73358C8.10017 6.90947 8.5553 7 9.01492 7C9.47455 7 9.92968 6.90947 10.3543 6.73358C10.779 6.55769 11.1648 6.29988 11.4898 5.97487C11.8148 5.64987 12.0726 5.26403 12.2485 4.83939C12.4244 4.41475 12.5149 3.95963 12.5149 3.5C12.5149 3.04037 12.4244 2.58525 12.2485 2.16061C12.0726 1.73597 11.8148 1.35013 11.4898 1.02513C11.1648 0.700121 10.779 0.442313 10.3543 0.266422C9.92968 0.0905303 9.47455 -6.84897e-09 9.01492 0ZM9.46024 9C9.44624 9 9.43318 9.00374 9.41922 9.00391C9.37806 9.00612 9.33701 9.01003 9.29617 9.01562C7.66352 9.0923 6.28452 10.2745 5.98953 11.8965C5.39753 15.1555 4.51492 20 4.51492 20V21.0117C4.51492 21.5181 4.65386 21.9883 4.87625 22.4062C4.90441 22.507 4.94303 22.6045 4.99149 22.6973L8.7532 29.8691C7.43395 30.6507 6.30269 31.4397 5.40555 32.1582C6.23455 32.3572 7.20391 32.5 8.34891 32.5C12.4229 32.5 14.5076 30.7621 14.5286 30.7441C14.9056 30.4211 15.47 30.421 15.843 30.748C15.858 30.761 17.9409 32.498 22.0149 32.498C26.0889 32.498 28.1746 30.7602 28.1946 30.7422C28.5726 30.4192 29.1341 30.4181 29.5071 30.7461C29.5221 30.7581 31.3772 32.2689 34.9602 32.4609C36.2852 31.4839 37.4541 30.4134 38.2161 29.3984C38.5011 29.0184 38.5884 28.5244 38.4524 28.0684C38.3164 27.6124 37.9727 27.2489 37.5247 27.0879C31.9004 25.0588 26.6362 24.7305 21.9876 25.3184L17.677 20.0508C17.5363 19.8786 17.359 19.7398 17.158 19.6445C16.957 19.5493 16.7373 19.4999 16.5149 19.5H12.6067C12.6889 19.0481 13.1227 16.6638 13.6067 14H11.5149C10.9629 14 10.5149 13.552 10.5149 13C10.5149 12.448 10.9629 12 11.5149 12H24.0149C24.2137 12.0028 24.411 11.9661 24.5955 11.892C24.7799 11.8178 24.9478 11.7078 25.0894 11.5682C25.2309 11.4287 25.3433 11.2624 25.4201 11.079C25.4968 10.8956 25.5363 10.6988 25.5363 10.5C25.5363 10.3012 25.4968 10.1044 25.4201 9.92102C25.3433 9.73764 25.2309 9.57133 25.0894 9.43176C24.9478 9.29219 24.7799 9.18215 24.5955 9.10803C24.411 9.03391 24.2137 8.99719 24.0149 9H10.8548H9.46024ZM29.0149 9C28.1859 9 27.5149 9.671 27.5149 10.5C27.5149 11.329 28.1859 12 29.0149 12H46.5091V9H29.0149ZM16.0091 22.75L18.6126 25.9316C16.0491 26.5269 13.7284 27.3686 11.7044 28.3164L10.843 24.4629C10.8925 24.4523 10.9414 24.4393 10.9895 24.4238L16.0091 22.75ZM42.472 32.4746C42.1198 32.4922 41.7851 32.6333 41.5266 32.873C41.5266 32.873 41.1748 33.2009 40.2044 33.627C39.234 34.053 37.7409 34.5 35.6829 34.5C33.6244 34.5 32.1299 34.053 31.1595 33.627C30.189 33.2009 29.8391 32.873 29.8391 32.873C29.5654 32.6325 29.2134 32.4998 28.8489 32.4998C28.4844 32.4998 28.1325 32.6325 27.8587 32.873C27.8587 32.873 27.5085 33.201 26.5384 33.627C25.5682 34.0529 24.0734 34.5 22.0149 34.5C19.9564 34.5 18.4636 34.0529 17.4934 33.627C16.5233 33.201 16.1731 32.873 16.1731 32.873C15.8993 32.6325 15.5474 32.4998 15.1829 32.4998C14.8184 32.4998 14.4664 32.6325 14.1927 32.873C14.1927 32.873 13.8428 33.2009 12.8723 33.627C11.9019 34.053 10.4074 34.5 8.34891 34.5C6.29095 34.5 4.7978 34.053 3.82742 33.627C2.85705 33.2009 2.50516 32.873 2.50516 32.873C2.24295 32.6358 1.90539 32.4989 1.55203 32.4863C1.24096 32.4756 0.934246 32.5618 0.674388 32.7332C0.414531 32.9045 0.214401 33.1524 0.101732 33.4426C-0.0109368 33.7327 -0.0305645 34.0507 0.0455687 34.3525C0.121702 34.6543 0.289826 34.925 0.526642 35.127C0.526642 35.127 1.31302 35.7991 2.62039 36.373C3.92776 36.947 5.85187 37.5 8.34891 37.5C10.8464 37.5 12.7699 36.947 14.0774 36.373C14.7674 36.0702 14.8218 35.9592 15.1829 35.7148C15.5439 35.9593 15.5985 36.0702 16.2884 36.373C17.5957 36.9471 19.5174 37.5 22.0149 37.5C24.5124 37.5 26.4361 36.9471 27.7434 36.373C28.4333 36.0702 28.4879 35.9593 28.8489 35.7148C29.21 35.9592 29.2644 36.0702 29.9544 36.373C31.2619 36.947 33.1854 37.5 35.6829 37.5C38.1799 37.5 40.104 36.947 41.4114 36.373C42.7188 35.7991 43.5052 35.127 43.5052 35.127C43.7474 34.9258 43.9202 34.6535 43.9991 34.3486C44.0779 34.0437 44.0589 33.7218 43.9446 33.4284C43.8303 33.135 43.6265 32.8849 43.3622 32.7138C43.0979 32.5426 42.7865 32.4589 42.472 32.4746Z" fill="white"/>
</svg>
