<svg width="60" height="52" viewBox="0 0 60 52" fill="none" xmlns="http://www.w3.org/2000/svg">
<path d="M13.7227 0.251913C9.3086 0.173685 6.5957 4.00777 6.5957 4.00777C6.5957 4.00777 8.75605 3.61552 10.873 3.97652C11.617 4.10352 13.0088 2.53407 13.5918 2.66207C14.1748 2.79007 13.4535 4.49723 13.7715 4.57223C14.5465 4.75423 15.5977 4.91784 16.2637 5.17184C16.6967 5.33784 17.4931 4.03027 17.8711 4.19527C18.1651 4.32427 17.8024 5.74679 18.3164 6.04879C18.9311 6.53879 19.4587 6.96471 19.9395 7.34566C16.763 6.66856 12.709 6.56893 9.84766 8.87691C3.38266 14.0919 6.87891 20.5058 6.87891 20.5058C6.87891 20.5058 8.54806 18.9594 9.66406 16.3984C10.2361 15.6394 9.46922 13.4188 9.94922 12.8418C10.4302 12.2638 11.149 14.5044 11.418 14.1914C12.07 13.4304 12.7499 12.7122 13.4199 12.1132C16.9761 8.94145 19.8031 9.10391 21.0957 8.66012C18.8588 12.6383 12.1588 23.372 1 31H10C10 31 17.6341 23.3305 22.3496 9.91012C22.7271 11.1081 23.2681 12.8666 23.1914 15.7324C23.1714 16.4934 23.0764 17.326 22.9414 18.164C22.8854 18.509 24.7301 17.7489 24.6191 18.3769C24.5091 19.0039 22.6517 19.7218 22.4727 20.5078C21.9647 22.7448 21.3379 24.5566 21.3379 24.5566C21.3379 24.5566 27.5458 24.4774 27.3848 17.4414C27.3658 16.5874 26.9485 15.0827 26.4785 14.0937C25.6493 12.3496 24.3138 10.0774 23.0781 8.56832C24.2453 9.22158 26.2437 10.07 28.7246 12.7304C29.2856 13.3314 29.843 14.043 30.375 14.791C30.594 15.099 31.4371 13.1166 31.8281 13.6836C32.2181 14.2496 31.3311 16.2082 31.7891 16.9492C33.0931 19.0562 33.9844 20.9277 33.9844 20.9277C33.9844 20.9277 38.703 16.1631 33.248 10.8671C32.586 10.2241 31.1257 9.38252 30.0137 8.97652C28.5734 8.45145 26.7198 7.93359 24.9961 7.59371C26.1978 7.36289 27.6503 7.08715 29.6973 6.77144C30.4633 6.65244 30.9347 6.59899 31.8047 6.58199C32.1607 6.57499 31.3997 4.49029 32.0527 4.48629C32.7047 4.48129 33.8078 6.58315 34.6348 6.61715C37.3898 7.17715 40.2832 6.64449 40.2832 6.64449C40.2832 6.64449 37.2678 0.650523 30.1328 2.47652C25.8709 3.56716 23.5933 5.4146 22.4766 6.66012C21.6967 4.57506 20.0796 2.36541 17.0371 1.02535C15.8499 0.495476 14.7413 0.269966 13.7227 0.251913ZM2.85352 32.9902C1.69595 32.9905 1 33 1 33L0.923828 40.6855C0.923828 40.6855 4.601 44 9 44C12.008 44 14.608 42.9624 16 42.2754C17.392 42.9624 19.992 44 23 44C26.008 44 28.608 42.9624 30 42.2754C31.392 42.9624 33.992 44 37 44C40.008 44 42.608 42.9624 44 42.2754C45.392 42.9624 47.992 44 51 44C55.399 44 59.0762 40.6855 59.0762 40.6855L56.9238 38.3144C56.8968 38.3314 54.193 40 51 40C47.799 40 45.0972 38.3264 45.0762 38.3144L44 37.6269L42.9238 38.3144C42.8968 38.3314 40.193 40 37 40C33.799 40 31.0972 38.3264 31.0762 38.3144L30 37.6269C30 37.6269 25.4928 34.5943 19.3438 33.6953C13.9468 33.066 6.3262 32.9893 2.85352 32.9902ZM16 45.6269L14.9238 46.3144C14.8968 46.3314 12.193 48 9 48C5.799 48 3.09731 46.3265 3.07031 46.3105L0.923828 48.6855C0.923828 48.6855 4.601 52 9 52C12.008 52 14.608 50.9624 16 50.2754C17.392 50.9624 19.992 52 23 52C26.008 52 28.608 50.9624 30 50.2754C31.392 50.9624 33.992 52 37 52C40.008 52 42.608 50.9624 44 50.2754C45.392 50.9624 47.992 52 51 52C55.399 52 59.0762 48.6855 59.0762 48.6855L56.9238 46.3144C56.8968 46.3314 54.193 48 51 48C47.799 48 45.0972 46.3264 45.0762 46.3144L44 45.6269L42.9238 46.3144C42.8968 46.3314 40.193 48 37 48C33.799 48 31.0972 46.3264 31.0762 46.3144L30 45.6269L28.9238 46.3144C28.8968 46.3314 26.193 48 23 48C19.799 48 17.0972 46.3264 17.0762 46.3144L16 45.6269Z" fill="white"/>
</svg>
