<svg width="46" height="41" viewBox="0 0 46 41" fill="none" xmlns="http://www.w3.org/2000/svg">
<path d="M35 0C32.2383 0 30 2.23828 30 5C30 7.76172 32.2383 10 35 10C37.7617 10 40 7.76172 40 5C40 2.23828 37.7617 0 35 0ZM24.5 6C23.6172 6 22.7656 6.33984 22.1211 6.94141L13.7656 13.6758V13.6875C12.6602 14.4297 12 15.6719 12 17C12 18.3906 12.7266 19.6797 13.9102 20.4062L21.625 25.6562L20.0469 35.0273C20.0156 35.1836 20 35.3398 20 35.5C20 36.8789 21.1211 38 22.5 38C23.8281 38 24.9219 36.9609 24.9961 35.6367L26.9688 24.3594V24.3555C26.9883 24.2383 27 24.1172 27 24C27 23.3398 26.6719 22.7188 26.125 22.3477L26.1211 22.3398L20.75 18.375L26.207 13.5586L30.3672 18.1602L30.3789 18.168C30.7539 18.6914 31.3555 19 32 19H39.5C40.8789 19 42 17.8789 42 16.5C42 15.1211 40.8789 14 39.5 14H33L27.4062 7.55469C26.7578 6.58203 25.668 6 24.5 6ZM9 23C4.04297 23 0 27.043 0 32C0 36.957 4.04297 41 9 41C13.957 41 18 36.957 18 32C18 27.043 13.957 23 9 23ZM37 23C32.043 23 28 27.043 28 32C28 36.957 32.043 41 37 41C41.957 41 46 36.957 46 32C46 27.043 41.957 23 37 23ZM9 25C12.8789 25 16 28.1211 16 32C16 35.8789 12.8789 39 9 39C5.12109 39 2 35.8789 2 32C2 28.1211 5.12109 25 9 25ZM37 25C40.8789 25 44 28.1211 44 32C44 35.8789 40.8789 39 37 39C33.1211 39 30 35.8789 30 32C30 28.1211 33.1211 25 37 25Z" fill="white"/>
<path fill-rule="evenodd" clip-rule="evenodd" d="M37 37C39.7614 37 42 34.7614 42 32C42 29.2386 39.7614 27 37 27C34.2386 27 32 29.2386 32 32C32 34.7614 34.2386 37 37 37ZM37 40C41.4183 40 45 36.4183 45 32C45 27.5817 41.4183 24 37 24C32.5817 24 29 27.5817 29 32C29 36.4183 32.5817 40 37 40Z" fill="white"/>
<path fill-rule="evenodd" clip-rule="evenodd" d="M9 37C11.7614 37 14 34.7614 14 32C14 29.2386 11.7614 27 9 27C6.23858 27 4 29.2386 4 32C4 34.7614 6.23858 37 9 37ZM9 40C13.4183 40 17 36.4183 17 32C17 27.5817 13.4183 24 9 24C4.58172 24 1 27.5817 1 32C1 36.4183 4.58172 40 9 40Z" fill="white"/>
</svg>
