<svg width="66" height="61" viewBox="0 0 66 61" fill="none" xmlns="http://www.w3.org/2000/svg">
<path fill-rule="evenodd" clip-rule="evenodd" d="M22.4239 0.103516C25.4337 0.103516 27.92 2.58984 27.92 5.59961C27.92 8.60938 25.4337 11.0957 22.4239 11.0957C19.4142 11.0957 16.9278 8.60938 16.9278 5.59961C16.9278 2.58984 19.4142 0.103516 22.4239 0.103516ZM40.7443 52.4473L39.1739 26.9297C39.8282 26.7988 41.7911 26.0137 40.8751 23.6582L38.9122 23.2656L38.5196 16.4609C38.5196 16.4609 36.5568 14.1055 36.5568 17.377C36.5568 18.0312 36.6876 19.9941 36.8185 22.873L30.9298 21.6953C30.9298 21.6953 25.6954 12.666 21.3771 12.1426C17.0587 11.6191 15.2267 13.582 15.2267 13.582C15.2267 13.582 12.3478 10.7031 8.55285 14.498C4.75792 18.293 4.75792 28.8926 4.75792 28.8926L11.4318 30.8555L8.16027 57.8125C4.4962 58.2051 0.177846 58.9902 0.439564 60.9531H65.4767L52.129 51.4004C52.129 51.4004 51.6056 50.877 47.2872 51.4004C42.9689 51.9238 41.5294 52.3164 41.5294 52.3164L40.8751 52.4473H40.7443ZM36.9493 27.0605C37.3419 35.5664 37.9962 47.2129 38.2579 52.8398L32.8927 53.7559L30.7989 39.3613L23.6017 32.1641L24.5177 23.5273L28.3126 27.3223L36.8185 26.9297L36.9493 27.0605ZM27.3966 54.8027L12.6095 57.5508L17.8439 37.0059L24.5177 42.2402L27.3966 54.8027Z" fill="white"/>
</svg>
