<svg width="44" height="45" viewBox="0 0 44 45" fill="none" xmlns="http://www.w3.org/2000/svg">
<path d="M40.1016 0.000519233C39.5078 -0.0111998 38.9258 0.1763 38.4023 0.477081L24.5977 8.97708H3C1.30078 8.97708 0 10.2779 0 11.9771C0 13.6763 1.30078 14.9771 3 14.9771H17V42.4771C17 43.8755 18.1016 44.9771 19.5 44.9771C20.8984 44.9771 22 43.8755 22 42.4771V28.6763L25.9219 26.3247L41.0469 22.9146C42.1875 22.6568 43 21.6451 43 20.4771C43 19.0982 41.8789 17.9771 40.5 17.9771C40.3164 17.9771 40.1328 18.0005 39.9531 18.0396L39.9492 18.0357L26 21.1802V14.9771L41.6992 5.47708C43.0977 4.6763 43.5 2.77786 42.5977 1.37552C42.1992 0.6763 41.5 0.277862 40.6992 0.0786442C40.5 0.0278622 40.3008 0.000519233 40.1016 0.000519233ZM30 27.9771C27.1992 27.9771 25 30.1763 25 32.9771C25 35.7779 27.1992 37.9771 30 37.9771C32.8008 37.9771 35 35.7779 35 32.9771C35 30.1763 32.8008 27.9771 30 27.9771Z" fill="white"/>
</svg>
