<svg width="48" height="48" viewBox="0 0 48 48" fill="none" xmlns="http://www.w3.org/2000/svg">
<path d="M17.998 4C17.7328 4 17.4785 4.10536 17.2909 4.29289C17.1034 4.48043 16.998 4.73478 16.998 5C16.998 5.26522 17.1034 5.51957 17.2909 5.70711C17.4785 5.89464 17.7328 6 17.998 6C18.2633 6 18.5176 5.89464 18.7052 5.70711C18.8927 5.51957 18.998 5.26522 18.998 5C18.998 4.73478 18.8927 4.48043 18.7052 4.29289C18.5176 4.10536 18.2633 4 17.998 4ZM22.498 7C22.1002 7 21.7187 7.15804 21.4374 7.43934C21.1561 7.72064 20.998 8.10218 20.998 8.5C20.998 8.89782 21.1561 9.27936 21.4374 9.56066C21.7187 9.84196 22.1002 10 22.498 10C22.8959 10 23.2774 9.84196 23.5587 9.56066C23.84 9.27936 23.998 8.89782 23.998 8.5C23.998 8.10218 23.84 7.72064 23.5587 7.43934C23.2774 7.15804 22.8959 7 22.498 7ZM40.084 10.4824C39.7898 10.4964 39.5063 10.5966 39.2688 10.7706C39.0312 10.9446 38.8501 11.1847 38.748 11.4609L38.7266 11.5176L34.998 18L28.0762 20.7617L26.998 21.0859V29.1387L29.002 28.5625L37.8418 29.4922C38.2108 29.5308 38.581 29.4313 38.8809 29.2129L45.8809 24.127C46.138 23.9452 46.3315 23.6871 46.4338 23.3893C46.5361 23.0914 46.5421 22.769 46.4509 22.4675C46.3597 22.1661 46.176 21.901 45.9257 21.7099C45.6755 21.5187 45.3714 21.4111 45.0566 21.4023C44.7188 21.3933 44.3877 21.4986 44.1172 21.7012L43.3281 22.2754L37.5918 25.6699L32.4297 23.9414L37.7949 21.2207C38.1268 21.0526 38.3843 20.7672 38.5176 20.4199L41.5488 12.5391C41.6424 12.3057 41.6758 12.0526 41.646 11.803C41.6162 11.5534 41.5241 11.3153 41.3783 11.1105C41.2325 10.9058 41.0375 10.7409 40.8114 10.6312C40.5852 10.5214 40.3351 10.4703 40.084 10.4824ZM18.498 11C18.1002 11 17.7187 11.158 17.4374 11.4393C17.1561 11.7206 16.998 12.1022 16.998 12.5C16.998 12.8978 17.1561 13.2794 17.4374 13.5607C17.7187 13.842 18.1002 14 18.498 14C18.8959 14 19.2774 13.842 19.5587 13.5607C19.84 13.2794 19.998 12.8978 19.998 12.5C19.998 12.1022 19.84 11.7206 19.5587 11.4393C19.2774 11.158 18.8959 11 18.498 11ZM12.9609 15.9609C12.3779 15.9241 11.8024 16.2294 11.5234 16.7852L9.70703 20.418C10.673 20.78 11.5298 21.3634 12.2168 22.1094L14.207 18.1289C14.577 17.3869 14.2762 16.4862 13.5352 16.1152C13.3502 16.023 13.1553 15.9732 12.9609 15.9609ZM24.998 21.6895L16.0684 24.377C14.8394 24.747 13.998 25.8781 13.998 27.1621V32.8828V36.6973L8.66602 40.252C8.49874 40.3597 8.35458 40.4997 8.24193 40.6637C8.12927 40.8277 8.05037 41.0125 8.00982 41.2073C7.96927 41.4021 7.96787 41.603 8.00572 41.7984C8.04357 41.9937 8.11991 42.1796 8.23028 42.3452C8.34066 42.5107 8.48287 42.6527 8.64863 42.7628C8.81439 42.8728 9.0004 42.9488 9.19582 42.9863C9.39123 43.0238 9.59216 43.0221 9.78689 42.9811C9.98162 42.9402 10.1663 42.861 10.3301 42.748L16.3301 38.748C16.5355 38.6111 16.704 38.4255 16.8205 38.2078C16.937 37.99 16.998 37.7469 16.998 37.5L17.9863 31.7344L24.998 29.7148V21.6895ZM7.45898 22C6.26551 22 5.12092 22.4741 4.277 23.318C3.43309 24.1619 2.95898 25.3065 2.95898 26.5C2.95898 27.6935 3.43309 28.8381 4.277 29.682C5.12092 30.5259 6.26551 31 7.45898 31C8.65246 31 9.79705 30.5259 10.641 29.682C11.4849 28.8381 11.959 27.6935 11.959 26.5C11.959 25.3065 11.4849 24.1619 10.641 23.318C9.79705 22.4741 8.65246 22 7.45898 22Z" fill="white"/>
</svg>
