<svg width="51" height="49" viewBox="0 0 51 49" fill="none" xmlns="http://www.w3.org/2000/svg">
<path d="M24.5381 0C23.1396 0 22.0381 1.10156 22.0381 2.5V5H10.0381C9.43652 5 9.03809 5.39844 9.03809 6V18C9.03809 18.6016 9.43652 19 10.0381 19H44.0381C44.3389 19 44.6514 18.8945 44.8506 18.5938L49.8506 12.5938C50.1514 12.293 50.1514 11.707 49.8506 11.4062L44.8506 5.40625C44.6514 5.10547 44.3389 5 44.0381 5H27.0381V2.5C27.0381 1.10156 25.9365 0 24.5381 0ZM22.0381 20V22H6.03809C5.7373 22 5.4248 22.1055 5.22559 22.4062L0.225586 28.4062C-0.0751953 28.8047 -0.0751953 29.2891 0.225586 29.6875L5.22559 35.6875C5.4248 35.8867 5.7373 36 6.03809 36H40.0381C40.6396 36 41.0381 35.6016 41.0381 35V23C41.0381 22.3984 40.6396 22 40.0381 22H27.0381V20H22.0381ZM22.0381 37V49H27.0381V37H22.0381Z" fill="white"/>
</svg>
