<svg width="50" height="50" viewBox="0 0 50 50" fill="none" xmlns="http://www.w3.org/2000/svg">
<path d="M44 7C40.64 6.418 38.651 3 35 3C31 3 29 7 25 7C21 7 19 3 15 3C11.349 3 9.36 6.418 6 7M44 19C40.64 18.418 38.651 15 35 15C31 15 29 19 25 19C21 19 19 15 15 15C11.349 15 9.36 18.418 6 19M44 31C40.64 30.418 38.651 27 35 27C31 27 29 31 25 31C21 31 19 27 15 27C11.349 27 9.36 30.418 6 31M44 43C40.64 42.418 38.651 39 35 39C31 39 29 43 25 43C21 43 19 39 15 39C11.349 39 9.36 42.418 6 43" stroke="white" stroke-width="4" stroke-miterlimit="10" stroke-linecap="round" stroke-linejoin="round"/>
</svg>
