<svg width="92" height="90" viewBox="0 0 92 90" fill="none" xmlns="http://www.w3.org/2000/svg">
<path fill-rule="evenodd" clip-rule="evenodd" d="M49.5 0C72.9721 0 92 19.0279 92 42.5C92 65.9719 72.9721 85 49.5 85C47.5031 85 45.5384 84.8623 43.6148 84.5958C43.8619 84.0714 44 83.4882 44 82.875V66.512C45.5556 69.5407 47.3944 72.4319 49.5 75.1446C53.5169 69.9693 56.5629 64.1444 58.5239 57.9545H43.9964C43.9046 55.764 42.0519 54 39.8 54H8.57423C7.54854 50.3424 7 46.4852 7 42.5C7 19.0279 26.0281 0 49.5 0ZM84.2727 42.5C84.2727 39.8442 83.975 37.2579 83.4111 34.7727H68.1907C68.5532 37.295 68.7638 39.8482 68.8173 42.4195C68.8185 42.4732 68.8185 42.5268 68.8173 42.5805C68.7638 45.1518 68.5532 47.705 68.1907 50.2273H83.4111C83.975 47.7421 84.2727 45.1558 84.2727 42.5ZM66.5804 27.0455H80.6582C76.2333 18.1415 68.1041 11.4032 58.287 8.84706C62.0097 14.4425 64.8062 20.5886 66.5804 27.0455ZM58.5239 27.0455C56.5629 20.8556 53.5169 15.0306 49.5 9.85533C45.483 15.0306 42.437 20.8556 40.4759 27.0455H58.5239ZM60.3727 34.7727H38.6272C38.2094 37.3156 37.968 39.8972 37.91 42.5C37.968 45.1029 38.2094 47.6845 38.6272 50.2273H60.3727C60.7906 47.6845 61.032 45.1029 61.09 42.5C61.032 39.8972 60.7906 37.3155 60.3727 34.7727ZM30.1827 42.5804C30.2362 45.1517 30.4468 47.705 30.8092 50.2273H15.589C15.025 47.7421 14.7273 45.1558 14.7273 42.5C14.7273 39.8442 15.025 37.2579 15.5889 34.7727H30.8092C30.4468 37.295 30.2362 39.8483 30.1827 42.4196C30.1815 42.4732 30.1815 42.5268 30.1827 42.5804ZM66.5804 57.9545C64.8062 64.4114 62.0097 70.5575 58.287 76.1529C68.1041 73.5968 76.2333 66.8585 80.6582 57.9545H66.5804ZM32.4195 27.0455H18.3418C22.7667 18.1415 30.8959 11.4033 40.7129 8.8471C36.9902 14.4425 34.1937 20.5886 32.4195 27.0455Z" fill="white"/>
<path d="M4.2 56C1.89 56 0 57.9125 0 60.25V85.75C0 88.0875 1.89 90 4.2 90H37.8C40.11 90 42 88.0875 42 85.75V60.25C42 57.9125 40.11 56 37.8 56H4.2ZM33.6 60.25H35.7C36.8592 60.25 37.8 61.202 37.8 62.375C37.8 63.548 36.8592 64.5 35.7 64.5H33.6C32.4408 64.5 31.5 63.548 31.5 62.375C31.5 61.202 32.4408 60.25 33.6 60.25ZM16.8 62.375C22.68 62.375 27.3 67.05 27.3 73C27.3 78.95 22.68 83.625 16.8 83.625C10.92 83.625 6.3 78.95 6.3 73C6.3 67.05 10.92 62.375 16.8 62.375ZM16.8 66.625C15.1291 66.625 13.5267 67.2966 12.3452 68.4922C11.1637 69.6877 10.5 71.3092 10.5 73C10.5 74.6908 11.1637 76.3123 12.3452 77.5078C13.5267 78.7034 15.1291 79.375 16.8 79.375C18.4709 79.375 20.0733 78.7034 21.2548 77.5078C22.4363 76.3123 23.1 74.6908 23.1 73C23.1 71.3092 22.4363 69.6877 21.2548 68.4922C20.0733 67.2966 18.4709 66.625 16.8 66.625Z" fill="white"/>
</svg>
