<svg width="700" height="700" viewBox="0 0 700 700" fill="none" xmlns="http://www.w3.org/2000/svg">
<path d="M700 325H648.73C642.742 254.409 611.979 188.21 561.884 138.116C511.79 88.0209 445.591 57.2583 375 51.27V0H325V51.27C254.409 57.2583 188.21 88.0209 138.116 138.116C88.0209 188.21 57.2583 254.409 51.27 325H0V375H51.27C57.2583 445.591 88.0209 511.79 138.116 561.884C188.21 611.979 254.409 642.742 325 648.73V700H375V648.73C445.591 642.742 511.79 611.979 561.884 561.884C611.979 511.79 642.742 445.591 648.73 375H700V325ZM375 598.73V500H325V598.73C267.655 592.885 214.083 567.435 173.324 526.676C132.565 485.917 107.115 432.345 101.27 375H200V325H101.27C107.115 267.655 132.565 214.083 173.324 173.324C214.083 132.565 267.655 107.115 325 101.27V200H375V101.27C432.345 107.115 485.917 132.565 526.676 173.324C567.435 214.083 592.885 267.655 598.73 325H500V375H598.73C592.885 432.345 567.435 485.917 526.676 526.676C485.917 567.435 432.345 592.885 375 598.73Z" fill="white"/>
</svg>
