<svg width="332" height="332" viewBox="0 0 332 332" fill="none" xmlns="http://www.w3.org/2000/svg">
<path d="M204.775 166L323.025 48.0252C328.203 42.8469 331.112 35.8235 331.112 28.5002C331.112 21.1769 328.203 14.1536 323.025 8.97522C317.846 3.79687 310.823 0.887695 303.5 0.887695C296.176 0.887695 289.153 3.79687 283.975 8.97522L166 127.225L48.0248 8.97522C42.8464 3.79687 35.8231 0.887695 28.4998 0.887695C21.1765 0.887695 14.1531 3.79687 8.97479 8.97522C3.79643 14.1536 0.887264 21.1769 0.887264 28.5002C0.887263 35.8235 3.79643 42.8469 8.97479 48.0252L127.225 166L8.97479 283.975C6.39725 286.532 4.35142 289.573 2.95528 292.924C1.55914 296.275 0.840332 299.87 0.840332 303.5C0.840332 307.131 1.55914 310.725 2.95528 314.076C4.35142 317.427 6.39725 320.469 8.97479 323.025C11.5313 325.603 14.5728 327.649 17.9239 329.045C21.2751 330.441 24.8695 331.16 28.4998 331.16C32.1301 331.16 35.7245 330.441 39.0756 329.045C42.4268 327.649 45.4683 325.603 48.0248 323.025L166 204.775L283.975 323.025C286.531 325.603 289.573 327.649 292.924 329.045C296.275 330.441 299.869 331.16 303.5 331.16C307.13 331.16 310.725 330.441 314.076 329.045C317.427 327.649 320.468 325.603 323.025 323.025C325.602 320.469 327.648 317.427 329.044 314.076C330.44 310.725 331.159 307.131 331.159 303.5C331.159 299.87 330.44 296.275 329.044 292.924C327.648 289.573 325.602 286.532 323.025 283.975L204.775 166Z" fill="white"/>
</svg>
