<svg width="32" height="32" viewBox="0 0 32 32" fill="none" xmlns="http://www.w3.org/2000/svg">
<path d="M15 5V17.4648L3.44531 25.168L4.55469 26.832L16 19.2012L27.4453 26.832L28.5547 25.168L17 17.4648V5H15ZM23.2109 12.1602L21.5469 13.2695L22.6562 14.9336L24.3203 13.8242L23.2109 12.1602ZM8.73828 12.1797L7.63086 13.8438L9.29492 14.9531L10.4023 13.2891L8.73828 12.1797ZM19.8828 14.3789L18.2188 15.4883L19.3281 17.1523L20.9922 16.043L19.8828 14.3789ZM12.0664 14.3984L10.957 16.0625L12.6211 17.1719L13.7305 15.5078L12.0664 14.3984ZM15 21V23H17V21H15ZM15 25V27H17V25H15Z" fill="white"/>
</svg>
