<svg width="980" height="980" viewBox="0 0 980 980" fill="none" xmlns="http://www.w3.org/2000/svg">
<path d="M490 58.8C727.8 58.8 921.2 252.2 921.2 490C921.2 727.8 727.8 921.2 490 921.2C252.2 921.2 58.8 727.8 58.8 490C58.8 252.2 252.2 58.8 490 58.8ZM490 0C219.3 0 0 219.3 0 490C0 760.6 219.3 980 490 980C760.7 980 980 760.6 980 490C980 219.3 760.7 0 490 0Z" fill="white"/>
<path d="M151.7 482.2L402.4 586.6L506.7 837.3L737.7 251.3L151.7 482.2ZM431.7 554.4L258.6 482.4L663.3 322.9L431.7 554.4Z" fill="white"/>
</svg>
