<svg width="480" height="480" viewBox="0 0 480 480" fill="none" xmlns="http://www.w3.org/2000/svg">
<path d="M48 480H168V448H48C43.7581 447.995 39.6913 446.308 36.6918 443.308C33.6924 440.309 32.005 436.242 32 432V312H0V432C0.0142926 444.726 5.07601 456.927 14.0747 465.925C23.0733 474.924 35.274 479.986 48 480V480Z" fill="white"/>
<path d="M32 48C32.005 43.7581 33.6924 39.6913 36.6918 36.6918C39.6913 33.6924 43.7581 32.005 48 32H168V0H48C35.274 0.0142926 23.0733 5.07601 14.0747 14.0747C5.07601 23.0733 0.0142926 35.274 0 48V168H32V48Z" fill="white"/>
<path d="M432 0H312V32H432C436.242 32.005 440.309 33.6924 443.308 36.6918C446.308 39.6913 447.995 43.7581 448 48V168H480V48C479.986 35.274 474.924 23.0733 465.925 14.0747C456.927 5.07601 444.726 0.0142926 432 0V0Z" fill="white"/>
<path d="M448 432C447.995 436.242 446.308 440.309 443.308 443.308C440.309 446.308 436.242 447.995 432 448H312V480H432C444.726 479.986 456.927 474.924 465.925 465.925C474.924 456.927 479.986 444.726 480 432V312H448V432Z" fill="white"/>
<path d="M384 240C384 160.6 319.4 96 240 96C160.6 96 96 160.6 96 240C96 319.4 160.6 384 240 384C319.4 384 384 319.4 384 240ZM240 352C217.848 352 196.194 345.431 177.776 333.125C159.358 320.818 145.003 303.326 136.525 282.861C128.048 262.395 125.831 239.876 130.152 218.15C134.474 196.424 145.141 176.468 160.804 160.804C176.468 145.141 196.424 134.474 218.15 130.152C239.876 125.831 262.395 128.048 282.861 136.525C303.326 145.003 320.818 159.358 333.125 177.776C345.431 196.194 352 217.848 352 240C351.966 269.694 340.156 298.162 319.159 319.159C298.162 340.156 269.694 351.966 240 352V352Z" fill="white"/>
</svg>
