<svg width="310" height="310" viewBox="0 0 310 310" fill="none" xmlns="http://www.w3.org/2000/svg">
<g clip-path="url(#clip0_164_20)">
<path d="M259.539 25.8338C259.539 23.55 258.632 21.3597 257.017 19.7448C255.402 18.1299 253.212 17.2227 250.928 17.2227H61.4834C59.1996 17.2227 57.0093 18.1299 55.3945 19.7448C53.7796 21.3597 52.8723 23.55 52.8723 25.8338V25.8338V34.4449H259.539V25.8338Z" fill="white"/>
<path d="M276.589 60.2781C276.589 57.9943 275.682 55.804 274.067 54.1891C272.452 52.5742 270.262 51.667 267.978 51.667H44.0889C41.8051 51.667 39.6148 52.5742 37.9999 54.1891C36.385 55.804 35.4778 57.9943 35.4778 60.2781V68.8892H276.589V60.2781Z" fill="white"/>
<path d="M276.589 86.1113H33.4111C29.1175 86.1113 24.9998 87.8169 21.9638 90.8529C18.9278 93.8889 17.2222 98.0067 17.2222 102.3V259.367C17.2222 263.66 18.9278 267.778 21.9638 270.814C24.9998 273.85 29.1175 275.556 33.4111 275.556H276.589C280.882 275.556 285 273.85 288.036 270.814C291.072 267.778 292.778 263.66 292.778 259.367V102.3C292.778 98.0067 291.072 93.8889 288.036 90.8529C285 87.8169 280.882 86.1113 276.589 86.1113ZM73.7111 115.82C78.8204 115.82 83.815 117.335 88.0633 120.173C92.3115 123.012 95.6227 127.047 97.5779 131.767C99.5332 136.487 100.045 141.682 99.048 146.693C98.0512 151.704 95.5908 156.307 91.978 159.92C88.3651 163.533 83.7621 165.993 78.7509 166.99C73.7397 167.987 68.5455 167.475 63.8251 165.52C59.1046 163.565 55.07 160.253 52.2314 156.005C49.3928 151.757 47.8777 146.762 47.8777 141.653C47.8777 134.802 50.5994 128.231 55.4441 123.386C60.2888 118.541 66.8596 115.82 73.7111 115.82ZM258.333 241.111H51.6666L115.905 176.786C117.051 175.65 118.598 175.013 120.211 175.013C121.824 175.013 123.371 175.65 124.517 176.786L156.205 208.475L199.864 163.611C201.009 162.475 202.556 161.838 204.169 161.838C205.782 161.838 207.33 162.475 208.475 163.611L258.333 213.47V241.111Z" fill="white"/>
</g>
<defs>
<clipPath id="clip0_164_20">
<rect width="310" height="310" fill="white"/>
</clipPath>
</defs>
</svg>
