<svg width="32" height="32" viewBox="0 0 32 32" fill="none" xmlns="http://www.w3.org/2000/svg">
<path d="M6.5 6L6.19922 6.40039C6.19922 6.40039 3 10.6 3 16C3 21.4 6.19922 25.5996 6.19922 25.5996L6.5 26H25.5L25.8008 25.5996C25.8008 25.5996 29 21.4 29 16C29 10.6 25.8008 6.40039 25.8008 6.40039L25.5 6H6.5ZM7.57422 8H10.5332C10.3317 8.55302 10.1083 9.20303 9.88477 10H6.43164C6.93369 8.95101 7.41362 8.22957 7.57422 8ZM12.6523 8H15V10H11.9355C12.2213 9.06004 12.4679 8.4339 12.6523 8ZM17 8H19.3477C19.5321 8.4339 19.7787 9.06004 20.0645 10H17V8ZM21.4668 8H24.4258C24.5864 8.22957 25.0663 8.95101 25.5684 10H22.1152C21.8917 9.20303 21.6683 8.55302 21.4668 8ZM5.64453 12H9.40039C9.22603 12.9205 9.143 13.9402 9.08789 15H5.0625C5.15166 13.906 5.3622 12.8951 5.64453 12ZM11.457 12H15V15H11.0898C11.152 13.9177 11.2651 12.9175 11.457 12ZM17 12H20.543C20.7349 12.9175 20.848 13.9177 20.9102 15H17V12ZM22.5996 12H26.3555C26.6378 12.8951 26.8483 13.906 26.9375 15H22.9121C22.857 13.9402 22.774 12.9205 22.5996 12ZM5.0625 17H9.08789C9.143 18.0598 9.22603 19.0795 9.40039 20H5.64453C5.3622 19.1049 5.15166 18.094 5.0625 17ZM11.0898 17H15V20H11.457C11.2651 19.0825 11.152 18.0823 11.0898 17ZM17 17H20.9102C20.848 18.0823 20.7349 19.0825 20.543 20H17V17ZM22.9121 17H26.9375C26.8483 18.094 26.6378 19.1049 26.3555 20H22.5996C22.774 19.0795 22.857 18.0598 22.9121 17ZM6.43164 22H9.88477C10.1083 22.797 10.3317 23.447 10.5332 24H7.57422C7.41362 23.7704 6.93369 23.049 6.43164 22ZM11.9355 22H15V24H12.6523C12.4679 23.5661 12.2213 22.94 11.9355 22ZM17 22H20.0645C19.7787 22.94 19.5321 23.5661 19.3477 24H17V22ZM22.1152 22H25.5684C25.0663 23.049 24.5864 23.7704 24.4258 24H21.4668C21.6683 23.447 21.8917 22.797 22.1152 22Z" fill="white"/>
</svg>
