<svg width="734" height="734" viewBox="0 0 734 734" fill="none" xmlns="http://www.w3.org/2000/svg">
<path d="M367 33.6665C450.376 124.945 497.76 243.401 500.333 367C497.76 490.6 450.376 609.053 367 700.333M367 33.6665C283.624 124.945 236.241 243.401 233.666 367C236.241 490.6 283.624 609.053 367 700.333M367 33.6665C182.905 33.6665 33.6665 182.905 33.6665 367C33.6665 551.093 182.905 700.333 367 700.333M367 33.6665C551.093 33.6665 700.333 182.905 700.333 367C700.333 551.093 551.093 700.333 367 700.333M50.3338 267H683.666M50.3332 467H683.666" stroke="white" stroke-width="66.6667" stroke-linecap="round" stroke-linejoin="round"/>
</svg>
