<svg width="47" height="46" viewBox="0 0 47 46" fill="none" xmlns="http://www.w3.org/2000/svg">
<path d="M23.9961 46C11.3125 46 0.992188 35.6836 0.992188 23C0.992188 10.3164 11.3125 0 23.9961 0C29.7422 0 35.2422 2.12891 39.4883 5.99609L40.2617 6.70312L32.6758 14.2891L31.9727 13.6875C29.7461 11.7812 26.9141 10.7305 23.9961 10.7305C17.2305 10.7305 11.7227 16.2344 11.7227 23C11.7227 29.7656 17.2305 35.2695 23.9961 35.2695C28.875 35.2695 32.7305 32.7773 34.5469 28.5312H22.9961V18.1758L45.5469 18.207L45.7148 19C46.8906 24.582 45.9492 32.793 41.1836 38.668C37.2383 43.5312 31.457 46 23.9961 46Z" fill="white"/>
</svg>
