<svg width="450" height="54" viewBox="0 0 450 54" fill="none" xmlns="http://www.w3.org/2000/svg">
<path d="M409 14C407.527 14 406.177 14.7728 405.478 16.0165C405.206 16.5 404.884 17.2888 404.71 17.8122C404.55 18.2604 402.106 23.8566 400.603 27.2783L400.614 27.2733C400.225 28.0609 400 28.9352 400 29.8605C400 33.2459 402.916 36 406.5 36C410.084 36 413 33.2459 413 29.8605V27.9808C413.269 27.8953 413.615 27.814 414 27.814C414.386 27.814 414.732 27.8953 415 27.9808V29.8605C415 33.2459 417.916 36 421.5 36C425.084 36 428 33.2459 428 29.8605C428 28.9352 427.775 28.0609 427.386 27.2733L427.397 27.2783C425.894 23.8561 423.45 18.2603 423.293 17.8182C423.116 17.2887 422.794 16.5 422.522 16.0165C421.823 14.7728 420.474 14 419 14C416.848 14 415.091 15.6405 415.008 17.6863C414.702 17.6246 414.364 17.5814 414 17.5814C413.636 17.5814 413.298 17.6246 412.992 17.6863C412.909 15.6405 411.152 14 409 14ZM414 19.6279C414.386 19.6279 414.732 19.7093 415 19.7948V21.7773C414.696 21.7165 414.361 21.6744 414 21.6744C413.639 21.6744 413.304 21.7165 413 21.7773V19.7948C413.269 19.7092 413.615 19.6279 414 19.6279ZM406.5 25.7674C408.982 25.7674 411 27.6037 411 29.8605C411 32.1173 408.982 33.9535 406.5 33.9535C404.019 33.9535 402 32.1173 402 29.8605C402 27.6037 404.019 25.7674 406.5 25.7674ZM421.5 25.7674C423.981 25.7674 426 27.6037 426 29.8605C426 32.1173 423.981 33.9535 421.5 33.9535C419.019 33.9535 417 32.1173 417 29.8605C417 27.6037 419.019 25.7674 421.5 25.7674Z" fill="white"/>
<path d="M379.472 35H373.972C373.128 35 372.444 34.3401 372.444 33.5256V28.2179C372.444 27.5663 371.897 27.0385 371.222 27.0385H368.778C368.102 27.0385 367.556 27.5663 367.556 28.2179V33.5256C367.556 34.3401 366.872 35 366.028 35H360.528C359.684 35 359 34.3401 359 33.5256V22.2692C359 20.9134 359.644 19.6325 360.747 18.7938L369.432 12.1893C369.765 11.9369 370.235 11.9369 370.567 12.1893L379.253 18.7938C380.356 19.6325 381 20.9128 381 22.268V33.5256C381 34.3401 380.316 35 379.472 35Z" fill="white"/>
<path d="M324.403 9C322.605 9 321.15 10.4593 321.15 12.2599C321.15 14.0605 322.605 15.5198 324.403 15.5198C326.195 15.5198 327.65 14.0605 327.65 12.2599C327.65 10.4593 326.195 9 324.403 9ZM339.35 9C339.035 9 338.784 9.23176 338.723 9.52973H338.71C337.761 14.4578 335.529 19.801 329.6 22.5668L329.61 22.5897L329.6 22.5719V24.0337L323.747 26.5856L323.75 26.6035L320.657 35.6191C320.553 35.8611 320.5 36.1208 320.5 36.3832C320.5 37.463 321.373 38.3391 322.45 38.3391C323.331 38.3391 324.103 37.7457 324.331 36.89L327 29.2114L332.456 26.8581L332.853 31.2081C332.873 32.2701 333.739 33.1233 334.8 33.1233C335.877 33.1233 336.75 32.2472 336.75 31.1673C336.75 31.1342 336.747 31.1011 336.745 31.0655H336.753L336.092 23.8071C336.097 23.7612 336.1 23.7154 336.1 23.6696C336.1 22.7705 335.371 22.0396 334.475 22.0396C334.186 22.0396 333.901 22.1186 333.652 22.2663L330.26 23.7485L330.235 23.7052C336.567 20.7076 339.005 14.8856 339.99 9.77423H339.977C339.985 9.73348 340 9.69528 340 9.65198C340 9.29288 339.711 9 339.35 9ZM329.6 22.5668V19.9614L335.724 12.3439L335.714 12.3363C335.963 12.0409 336.1 11.6665 336.1 11.2819C336.1 10.3829 335.371 9.65198 334.475 9.65198C333.888 9.65198 333.35 9.97033 333.063 10.4822L328.3 16.1718L319.35 19.256L317.057 15.7286C316.775 15.1989 316.224 14.8678 315.625 14.8678C314.729 14.8678 314 15.5988 314 16.4978C314 16.8518 314.117 17.1981 314.33 17.4808L317.362 22.1695C317.532 22.4904 317.864 22.6916 318.225 22.6916C318.321 22.6916 318.415 22.6763 318.509 22.6508L318.512 22.6483C318.514 22.6483 318.514 22.6483 318.514 22.6483L323.1 21.3876L323.58 25.2358L329.6 22.5744V22.5668ZM330.25 29.2267L328.95 29.7182V38.3391C328.947 38.5734 329.069 38.7924 329.272 38.9121C329.476 39.0293 329.724 39.0293 329.928 38.9121C330.131 38.7924 330.253 38.5734 330.25 38.3391V29.2267Z" fill="white"/>
<path d="M274.368 12C272.966 12 271.825 13.147 271.825 14.5564C271.825 15.9659 272.966 17.1128 274.368 17.1128C275.77 17.1128 276.911 15.9659 276.911 14.5564C276.911 13.147 275.77 12 274.368 12ZM294.439 12.03C294.293 12.0285 294.151 12.0846 294.044 12.1864L285.875 19.7869C285.661 19.1423 285.017 18.721 284.324 18.8338L281.181 19.3198C279.392 18.1603 279.355 18.1384 279.333 18.1248C278.825 17.8186 278.25 17.6713 277.648 17.682C277.429 17.6883 277.209 17.7181 277.022 17.7653L273.669 18.5309C272.572 18.7672 271.596 19.4467 270.99 20.396L269.224 23.1633C269.01 23.499 268.945 23.9098 269.048 24.2961L270.178 28.5568C270.322 29.1011 270.763 29.4835 271.278 29.5832L269.063 33.8949C268.994 34.0288 268.981 34.1847 269.027 34.3283C269.072 34.4718 269.173 34.5913 269.306 34.6605C269.439 34.7296 269.594 34.7428 269.737 34.697C269.88 34.6512 269.999 34.5503 270.067 34.4164L272.658 29.3735L285.224 21.9228C285.259 21.9023 285.291 21.8781 285.321 21.8507L294.812 13.0208C294.897 12.9442 294.957 12.8437 294.984 12.7324C295.011 12.621 295.004 12.5041 294.963 12.397C294.923 12.2898 294.851 12.1974 294.758 12.1319C294.664 12.0664 294.553 12.0309 294.439 12.03ZM294.431 17.1117C294.399 17.112 294.367 17.115 294.336 17.1206C294.336 17.1206 293.302 17.309 292.28 18.2579C291.257 19.2068 290.205 20.9231 289.911 23.8734C289.9 23.9494 289.904 24.0269 289.924 24.1012C289.944 24.1754 289.978 24.2449 290.025 24.3055C290.072 24.366 290.131 24.4163 290.198 24.4534C290.265 24.4904 290.338 24.5134 290.415 24.521C290.491 24.5286 290.567 24.5206 290.64 24.4975C290.713 24.4744 290.781 24.4367 290.839 24.3866C290.897 24.3366 290.944 24.2752 290.977 24.2062C291.011 24.1373 291.031 24.0622 291.035 23.9854C291.306 21.2553 292.232 19.8475 293.046 19.0923C293.859 18.3371 294.521 18.2413 294.521 18.2413C294.662 18.2192 294.79 18.1444 294.878 18.0318C294.966 17.9192 295.009 17.7772 294.998 17.6343C294.986 17.4913 294.921 17.358 294.816 17.2611C294.711 17.1642 294.573 17.1108 294.431 17.1117ZM294.417 19.9489C294.309 19.952 294.204 19.9863 294.115 20.0476C294.115 20.0476 293.914 20.1956 293.719 20.446C293.524 20.6963 293.286 21.0817 293.057 21.6587C292.597 22.8128 292.168 24.7293 292.168 27.9055V29.6098C292.167 29.6851 292.181 29.7598 292.209 29.8297C292.237 29.8995 292.278 29.9631 292.331 30.0167C292.383 30.0703 292.446 30.1129 292.515 30.142C292.584 30.171 292.658 30.186 292.733 30.186C292.808 30.186 292.882 30.171 292.951 30.142C293.02 30.1129 293.083 30.0703 293.136 30.0167C293.188 29.9631 293.23 29.8995 293.258 29.8297C293.285 29.7598 293.299 29.6851 293.298 29.6098V27.9055C293.298 24.8326 293.717 23.0577 294.105 22.0814C294.299 21.5933 294.485 21.3041 294.608 21.1461C294.731 20.9881 294.742 20.993 294.742 20.993C294.845 20.9254 294.924 20.8258 294.965 20.7092C295.007 20.5927 295.01 20.4656 294.973 20.3474C294.936 20.2291 294.862 20.1262 294.762 20.0543C294.661 19.9823 294.541 19.9453 294.417 19.9489ZM278.339 21.0762L280.101 21.9993C280.391 22.1879 280.741 22.2647 281.082 22.2101L283.021 21.9106L279.255 24.143L278.339 21.0762ZM273.213 22.7161L274.483 26.9724L272.92 27.8989C272.915 27.874 272.915 27.8493 272.908 27.8245L271.938 24.1696L273.213 22.7161ZM282.148 25.065L276.008 28.7055C276.428 28.9185 276.899 29.04 277.395 29.0428C277.483 29.0428 277.572 29.0402 277.666 29.0317C277.709 29.0283 282.99 28.4736 282.99 28.4736L285.319 30.8159C285.65 31.1488 286.083 31.3152 286.517 31.3152C286.951 31.3152 287.385 31.1488 287.716 30.8159C288.378 30.1506 288.378 29.0717 287.716 28.4059L285.056 25.7319C284.63 25.3024 284.062 25.065 283.458 25.065H282.148ZM290.464 25.6254C290.314 25.6277 290.172 25.6897 290.067 25.7976C289.963 25.9056 289.906 26.0507 289.908 26.2012C289.908 27.7914 289.764 29.8709 289.16 31.7146C288.555 33.5583 287.522 35.133 285.729 35.9054C285.661 35.9344 285.598 35.9768 285.546 36.0302C285.493 36.0836 285.452 36.1469 285.424 36.2164C285.396 36.286 285.382 36.3605 285.382 36.4355C285.383 36.5106 285.399 36.5847 285.428 36.6537C285.458 36.7226 285.5 36.785 285.554 36.8373C285.608 36.8896 285.671 36.9306 285.74 36.9581C285.81 36.9856 285.884 36.999 285.959 36.9976C286.033 36.9961 286.107 36.9798 286.175 36.9495C288.338 36.0176 289.566 34.1022 290.232 32.0708C290.899 30.0394 291.038 27.8577 291.038 26.2012C291.039 26.1252 291.025 26.0498 290.996 25.9794C290.968 25.909 290.926 25.845 290.872 25.7913C290.819 25.7376 290.755 25.6953 290.685 25.6668C290.615 25.6383 290.54 25.6242 290.464 25.6254ZM281.475 29.7751C279.041 30.0302 277.796 30.1612 277.768 30.1635C277.636 30.1754 277.515 30.179 277.395 30.179C277.331 30.1784 277.27 30.1663 277.207 30.1635L278.606 31.6946V35.2918C278.606 36.2332 279.365 36.9961 280.302 36.9961C281.238 36.9961 281.997 36.2332 281.997 35.2918V31.0311C281.997 30.6431 281.865 30.2676 281.625 29.966C281.622 29.9625 281.565 29.8899 281.475 29.7751ZM292.724 31.3063C292.575 31.3087 292.432 31.3706 292.328 31.4786C292.223 31.5865 292.166 31.7317 292.168 31.8822C292.168 33.4918 291.774 34.5168 291.401 35.1409C291.029 35.7651 290.725 35.9542 290.725 35.9542C290.662 35.9951 290.607 36.0481 290.565 36.1102C290.522 36.1723 290.493 36.2423 290.477 36.3161C290.462 36.3898 290.462 36.4659 290.476 36.5399C290.49 36.6139 290.519 36.6843 290.56 36.747C290.602 36.8097 290.656 36.8635 290.718 36.9052C290.78 36.9468 290.85 36.9756 290.924 36.9898C290.998 37.004 291.073 37.0034 291.147 36.9879C291.22 36.9724 291.29 36.9424 291.351 36.8996C291.351 36.8996 291.895 36.5218 292.37 35.7257C292.845 34.9296 293.298 33.6811 293.298 31.8822C293.299 31.8062 293.285 31.7307 293.257 31.6603C293.228 31.5899 293.186 31.526 293.132 31.4723C293.079 31.4186 293.015 31.3762 292.945 31.3477C292.875 31.3192 292.8 31.3051 292.724 31.3063Z" fill="white"/>
<path d="M242.826 12C241.025 12 239.565 13.474 239.565 15.2927C239.565 17.1114 241.025 18.5854 242.826 18.5854C244.627 18.5854 246.087 17.1114 246.087 15.2927C246.087 13.474 244.627 12 242.826 12ZM235.978 15.9512C235.403 15.9512 234.847 16.175 234.427 16.5712L228.978 21.006V21.0137C228.257 21.5025 227.826 22.3205 227.826 23.1951C227.826 24.1109 228.3 24.9598 229.072 25.4383L234.103 28.8956L233.074 35.0668C233.054 35.1697 233.043 35.2726 233.043 35.378C233.043 36.2861 233.775 37.0244 234.674 37.0244C235.54 37.0244 236.253 36.3401 236.302 35.4681L237.588 28.0415V28.039C237.601 27.9618 237.609 27.882 237.609 27.8049C237.609 27.3701 237.395 26.9611 237.038 26.7167L237.035 26.7116L233.533 24.1006L237.092 20.9288L239.805 23.9591L239.812 23.9643C240.057 24.309 240.449 24.5122 240.87 24.5122H245.761C246.66 24.5122 247.391 23.7739 247.391 22.8659C247.391 21.9578 246.66 21.2195 245.761 21.2195H241.522L237.874 16.975C237.451 16.3345 236.74 15.9512 235.978 15.9512ZM225.87 27.1463C222.637 27.1463 220 29.8088 220 33.0732C220 36.3376 222.637 39 225.87 39C229.102 39 231.739 36.3376 231.739 33.0732C231.739 29.8088 229.102 27.1463 225.87 27.1463ZM244.13 27.1463C240.898 27.1463 238.261 29.8088 238.261 33.0732C238.261 36.3376 240.898 39 244.13 39C247.363 39 250 36.3376 250 33.0732C250 29.8088 247.363 27.1463 244.13 27.1463ZM225.87 28.4634C228.399 28.4634 230.435 30.5188 230.435 33.0732C230.435 35.6276 228.399 37.6829 225.87 37.6829C223.34 37.6829 221.304 35.6276 221.304 33.0732C221.304 30.5188 223.34 28.4634 225.87 28.4634ZM244.13 28.4634C246.66 28.4634 248.696 30.5188 248.696 33.0732C248.696 35.6276 246.66 37.6829 244.13 37.6829C241.601 37.6829 239.565 35.6276 239.565 33.0732C239.565 30.5188 241.601 28.4634 244.13 28.4634Z" fill="white"/>
<path fill-rule="evenodd" clip-rule="evenodd" d="M244.13 36.3659C245.931 36.3659 247.391 34.8917 247.391 33.0732C247.391 31.2547 245.931 29.7805 244.13 29.7805C242.33 29.7805 240.87 31.2547 240.87 33.0732C240.87 34.8917 242.33 36.3659 244.13 36.3659ZM244.13 38.3415C247.012 38.3415 249.348 35.9828 249.348 33.0732C249.348 30.1636 247.012 27.8049 244.13 27.8049C241.249 27.8049 238.913 30.1636 238.913 33.0732C238.913 35.9828 241.249 38.3415 244.13 38.3415Z" fill="white"/>
<path fill-rule="evenodd" clip-rule="evenodd" d="M225.87 36.3659C227.67 36.3659 229.13 34.8917 229.13 33.0732C229.13 31.2547 227.67 29.7805 225.87 29.7805C224.069 29.7805 222.609 31.2547 222.609 33.0732C222.609 34.8917 224.069 36.3659 225.87 36.3659ZM225.87 38.3415C228.751 38.3415 231.087 35.9828 231.087 33.0732C231.087 30.1636 228.751 27.8049 225.87 27.8049C222.988 27.8049 220.652 30.1636 220.652 33.0732C220.652 35.9828 222.988 38.3415 225.87 38.3415Z" fill="white"/>
<path d="M39.1235 36.9198H47.406C47.9837 36.9198 48.5165 36.6119 48.798 36.115C49.0795 35.6182 49.0658 35.0102 48.7621 34.5264L37.6047 16.7445C37.3143 16.2817 36.801 16 36.2486 16C35.6959 16 35.1829 16.2817 34.8924 16.7445L30.6937 23.4362L39.1235 36.9198Z" fill="white"/>
<path d="M15.5277 36.9198H35.3803L25.3638 20.8975C25.0704 20.4535 24.5687 20.1839 24.0286 20.1839C23.4751 20.1839 22.9612 20.4666 22.6711 20.9307L14.1702 34.5286C13.8676 35.0127 13.8547 35.6201 14.1365 36.1162C14.418 36.6124 14.9503 36.9198 15.5277 36.9198Z" fill="white"/>
<path d="M83 9C74.7285 9 68 15.6494 68 23.8222V23.8386C68.0059 24.5429 68.5915 25.1111 69.3043 25.1111H69.3706L96.6294 25.1098V25.1111H96.6957C97.4078 25.1111 97.9935 24.5429 98 23.8386V23.8222C98 15.6494 91.2715 9 83 9ZM96.809 27.0431L69.1923 27.0444C68.7612 27.0444 68.4526 27.4539 68.5694 27.8638C68.5707 27.8683 68.5719 27.8719 68.5732 27.8764C68.6515 28.149 68.9091 28.3333 69.1961 28.3333L96.8052 28.332C97.0915 28.332 97.3492 28.1477 97.4268 27.8751C97.4281 27.8706 97.4293 27.8671 97.4306 27.8625C97.5474 27.4527 97.2401 27.0431 96.809 27.0431ZM95.427 30.2654L70.573 30.2666C70.0748 30.2666 69.7615 30.8017 70.0113 31.227C70.0139 31.2315 70.017 31.2363 70.0189 31.2408C70.1344 31.4374 70.3505 31.5555 70.5807 31.5555L95.4206 31.5542C95.6508 31.5542 95.8669 31.4361 95.9823 31.2396C95.9849 31.2351 95.988 31.2302 95.99 31.2257C96.2398 30.8004 95.9246 30.2654 95.427 30.2654ZM73.1512 33.4888C72.5681 33.4888 72.2815 34.1951 72.7041 34.5914C72.7086 34.5953 72.7129 34.6002 72.7168 34.604C72.8381 34.7168 72.9995 34.7777 73.1652 34.7777L92.8348 34.7765C93.0005 34.7765 93.1626 34.7162 93.2832 34.604C93.2878 34.6002 93.292 34.5953 93.2959 34.5914C93.7192 34.1951 93.4319 33.4888 92.8488 33.4888H73.1512ZM77.7826 36.7111C77.6962 36.7098 77.6104 36.7256 77.5302 36.7575C77.45 36.7893 77.377 36.8366 77.3155 36.8965C77.2539 36.9565 77.205 37.028 77.1717 37.1067C77.1383 37.1855 77.1211 37.2701 77.1211 37.3555C77.1211 37.4409 77.1383 37.5255 77.1717 37.6042C77.205 37.683 77.2539 37.7545 77.3155 37.8144C77.377 37.8744 77.45 37.9217 77.5302 37.9535C77.6104 37.9854 77.6962 38.0011 77.7826 37.9999H88.2174C88.3038 38.0011 88.3896 37.9854 88.4698 37.9535C88.55 37.9217 88.623 37.8744 88.6845 37.8144C88.7461 37.7545 88.795 37.683 88.8283 37.6042C88.8617 37.5255 88.8789 37.4409 88.8789 37.3555C88.8789 37.2701 88.8617 37.1855 88.8283 37.1067C88.795 37.028 88.7461 36.9565 88.6845 36.8965C88.623 36.8366 88.55 36.7893 88.4698 36.7575C88.3896 36.7256 88.3038 36.7098 88.2174 36.7111H77.7826Z" fill="white"/>
<path d="M197.584 12C195.701 12 194.169 13.5137 194.169 15.375C194.169 17.2363 195.701 18.75 197.584 18.75C199.468 18.75 201 17.2363 201 15.375C201 13.5137 199.468 12 197.584 12ZM175.575 12.5658C175.119 12.5955 174.686 12.8407 174.439 13.2601C174.042 13.9306 174.271 14.7923 174.95 15.1838L183.23 19.9552L188.568 23.0643L189.979 22.1052C189.998 22.1033 190.015 22.0987 190.034 22.0964L190.743 24.1718H190.744C190.853 24.4985 191.078 24.779 191.387 24.9529L196.026 27.5654L196.029 27.5599C196.237 27.6775 196.474 27.75 196.73 27.75C197.515 27.75 198.154 27.1194 198.154 26.3438C198.154 25.8214 197.861 25.37 197.432 25.1276L197.435 25.1221L193.428 22.8655L193.011 19.1016C193.023 18.9861 193.03 18.8686 193.03 18.75C193.03 16.8887 191.498 15.375 189.614 15.375C188.886 15.375 188.211 15.6028 187.656 15.988L187.655 15.9869L185.111 17.7843L176.384 12.7548C176.13 12.6086 175.849 12.548 175.575 12.5658ZM181.418 20.8132L181.051 21.1154C179.774 22.1706 179.937 24.1565 181.369 24.9946L185.277 27.2798L182.898 30.1835C177.552 27.2543 171.657 24.0245 171.657 24.0245L170 26.9755C170 26.9755 187.916 36.7974 189.539 37.6816C191.303 38.643 192.614 39 194.379 39C196.269 39 197.548 38.4828 197.688 38.4232C198.548 38.0587 198.943 37.0815 198.584 36.2271C198.224 35.3737 197.225 34.967 196.359 35.3141C196.351 35.3175 195.564 35.625 194.379 35.625C193.356 35.625 192.584 35.4863 191.189 34.7263C190.805 34.5176 188.325 33.1571 186.575 32.1984L190.52 28.786C190.931 28.4299 191.146 27.9016 191.095 27.3633C191.046 26.8255 190.738 26.3436 190.268 26.0669L190.027 25.9252L190.029 25.923L181.418 20.8132Z" fill="white"/>
<path fill-rule="evenodd" clip-rule="evenodd" d="M128.497 8C130.07 8 131.37 9.30753 131.37 10.8903C131.37 12.4731 130.07 13.7806 128.497 13.7806C126.924 13.7806 125.624 12.4731 125.624 10.8903C125.624 9.30753 126.924 8 128.497 8ZM138.073 35.5269L137.252 22.1075C137.594 22.0387 138.62 21.6258 138.141 20.3871L137.115 20.1806L136.91 16.6022C136.91 16.6022 135.884 15.3634 135.884 17.0839C135.884 17.428 135.952 18.4602 136.021 19.9742L132.943 19.3548C132.943 19.3548 130.207 14.6065 127.95 14.3312C125.693 14.0559 124.735 15.0882 124.735 15.0882C124.735 15.0882 123.23 13.5742 121.247 15.5699C119.263 17.5656 119.263 23.1398 119.263 23.1398L122.751 24.172L121.041 38.3484C119.126 38.5548 116.869 38.9677 117.006 40H151L144.023 34.9763C144.023 34.9763 143.75 34.7011 141.493 34.9763C139.235 35.2516 138.483 35.4581 138.483 35.4581L138.141 35.5269H138.073ZM136.089 22.1763C136.294 26.6495 136.636 32.7742 136.773 35.7333L133.969 36.2151L132.874 28.6452L129.112 24.8602L129.591 20.3183L131.575 22.314L136.021 22.1075L136.089 22.1763ZM131.096 36.7656L123.367 38.2108L126.103 27.4065L129.591 30.1591L131.096 36.7656Z" fill="white"/>
</svg>
