<svg width="499" height="302" viewBox="0 0 499 302" fill="none" xmlns="http://www.w3.org/2000/svg">
<path d="M357.952 302H475.649C483.859 302 491.43 297.555 495.43 290.382C499.43 283.21 499.236 274.433 494.92 267.448L336.37 10.7482C332.243 4.06642 324.95 0 317.099 0C309.246 0 301.956 4.06642 297.827 10.7482L238.163 107.349L351.805 292.017L357.952 302Z" fill="white"/>
<path d="M22.6497 302H264.25C264.259 302 264.271 302 264.278 302H304.76L162.423 70.7011C158.254 64.2912 151.124 60.3999 143.45 60.3999C135.584 60.3999 128.282 64.4799 124.159 71.1798L3.35945 267.48C-0.941033 274.468 -1.12525 283.237 2.87927 290.399C6.88077 297.562 14.4444 302 22.6497 302Z" fill="white"/>
</svg>
