<svg width="330" height="200" viewBox="0 0 330 200" fill="none" xmlns="http://www.w3.org/2000/svg">
<path d="M237.055 200H315C320.437 200 325.451 197.056 328.1 192.306C330.749 187.556 330.62 181.744 327.762 177.118L222.762 7.118C220.029 2.693 215.199 0 210 0C204.799 0 199.971 2.693 197.237 7.118L157.724 71.092L232.984 193.389L237.055 200Z" fill="white"/>
<path d="M14.9998 200H175C175.006 200 175.014 200 175.019 200H201.828L107.565 46.822C104.804 42.577 100.082 40 94.9998 40C89.7908 40 84.9548 42.702 82.2248 47.139L2.2248 177.139C-0.6232 181.767 -0.7452 187.574 1.9068 192.317C4.5568 197.061 9.5658 200 14.9998 200Z" fill="white"/>
</svg>
