<svg width="330" height="330" viewBox="0 0 330 330" fill="none" xmlns="http://www.w3.org/2000/svg">
<path d="M326.602 174.506C326.741 174.336 326.862 174.157 326.994 173.982C327.156 173.766 327.324 173.554 327.474 173.328C327.618 173.115 327.741 172.893 327.871 172.674C327.991 172.474 328.117 172.278 328.227 172.071C328.347 171.846 328.45 171.614 328.558 171.384C328.659 171.17 328.765 170.96 328.857 170.741C328.95 170.516 329.025 170.286 329.107 170.058C329.19 169.825 329.28 169.595 329.352 169.356C329.421 169.125 329.473 168.891 329.532 168.657C329.593 168.416 329.66 168.178 329.709 167.932C329.763 167.66 329.795 167.385 329.834 167.11C329.864 166.9 329.904 166.694 329.925 166.481C330.023 165.495 330.023 164.502 329.925 163.516C329.904 163.303 329.864 163.097 329.834 162.887C329.795 162.613 329.763 162.337 329.709 162.065C329.66 161.819 329.593 161.582 329.532 161.34C329.473 161.107 329.422 160.872 329.352 160.641C329.28 160.403 329.19 160.173 329.107 159.939C329.025 159.711 328.95 159.481 328.857 159.256C328.765 159.037 328.659 158.827 328.558 158.613C328.45 158.383 328.347 158.152 328.227 157.926C328.117 157.72 327.991 157.523 327.871 157.323C327.74 157.104 327.617 156.882 327.474 156.669C327.324 156.443 327.156 156.231 326.994 156.015C326.862 155.84 326.741 155.661 326.602 155.491C326.287 155.107 325.956 154.738 325.604 154.388L270.609 99.391C264.753 93.534 255.255 93.533 249.396 99.39C243.538 105.248 243.538 114.745 249.396 120.603L278.788 150H180V51.213L209.394 80.606C212.323 83.535 216.162 84.999 220 84.999C223.838 84.999 227.678 83.535 230.606 80.606C236.464 74.748 236.464 65.251 230.606 59.393L175.609 4.396C175.262 4.05 174.898 3.721 174.52 3.409C174.42 3.327 174.313 3.258 174.212 3.179C173.927 2.956 173.641 2.735 173.34 2.533C173.246 2.47 173.146 2.418 173.051 2.358C172.733 2.155 172.412 1.955 172.078 1.776C172.008 1.738 171.933 1.709 171.862 1.672C171.499 1.484 171.131 1.304 170.75 1.146C170.7 1.126 170.647 1.11 170.597 1.09C170.196 0.928 169.788 0.779 169.371 0.651C169.315 0.634 169.259 0.625 169.204 0.608C168.793 0.488 168.377 0.378 167.952 0.293C167.824 0.268 167.693 0.256 167.564 0.234C167.21 0.173 166.858 0.11 166.497 0.075C166.002 0.026 165.503 0 165 0C164.498 0 163.998 0.026 163.503 0.076C163.135 0.113 162.776 0.176 162.416 0.238C162.294 0.259 162.169 0.27 162.048 0.294C161.615 0.38 161.194 0.491 160.776 0.614C160.727 0.628 160.678 0.637 160.63 0.652C160.205 0.781 159.79 0.934 159.381 1.099C159.339 1.117 159.294 1.129 159.252 1.146C158.864 1.307 158.488 1.49 158.117 1.682C158.054 1.715 157.986 1.742 157.923 1.775C157.582 1.959 157.254 2.162 156.929 2.37C156.841 2.426 156.749 2.475 156.661 2.533C156.351 2.74 156.056 2.968 155.763 3.198C155.67 3.27 155.573 3.334 155.481 3.409C155.102 3.721 154.738 4.05 154.391 4.396L99.396 59.393C93.538 65.251 93.538 74.748 99.396 80.606C105.253 86.463 114.751 86.464 120.609 80.606L150 51.214V150H51.213L80.607 120.606C86.465 114.748 86.465 105.251 80.607 99.393C74.75 93.535 65.252 93.535 59.394 99.393L4.39696 154.391C4.04596 154.741 3.71396 155.11 3.39896 155.494C3.25996 155.664 3.13796 155.843 3.00696 156.018C2.84496 156.234 2.67696 156.446 2.52696 156.672C2.38296 156.885 2.25996 157.107 2.12896 157.326C2.00896 157.526 1.88296 157.722 1.77296 157.929C1.65196 158.154 1.54996 158.386 1.44196 158.616C1.34096 158.83 1.23496 159.04 1.14296 159.259C1.04996 159.484 0.974965 159.714 0.892965 159.942C0.809965 160.175 0.719965 160.405 0.647965 160.644C0.578965 160.875 0.526965 161.109 0.467965 161.343C0.406965 161.584 0.339965 161.822 0.290965 162.068C0.236965 162.34 0.203965 162.615 0.165965 162.89C0.135965 163.1 0.0959648 163.306 0.0749648 163.519C-0.0230352 164.505 -0.0230352 165.498 0.0749648 166.484C0.0959648 166.697 0.135965 166.903 0.165965 167.113C0.203965 167.387 0.236965 167.663 0.290965 167.935C0.339965 168.181 0.406965 168.418 0.467965 168.66C0.526965 168.893 0.577965 169.128 0.647965 169.359C0.719965 169.597 0.809965 169.827 0.892965 170.061C0.974965 170.289 1.04996 170.519 1.14296 170.744C1.23496 170.963 1.34096 171.173 1.44196 171.387C1.54996 171.617 1.65196 171.848 1.77296 172.074C1.88296 172.28 2.00896 172.477 2.12896 172.677C2.25996 172.896 2.38296 173.118 2.52696 173.331C2.67696 173.557 2.84496 173.769 3.00696 173.985C3.13796 174.16 3.25996 174.339 3.39896 174.509C3.71496 174.893 4.04596 175.262 4.39696 175.612L59.394 230.609C62.322 233.536 66.161 235 70 235C73.839 235 77.678 233.536 80.606 230.606C86.464 224.748 86.464 215.251 80.606 209.393L51.213 180H150V278.786L120.608 249.394C114.751 243.536 105.253 243.537 99.395 249.394C93.537 255.252 93.537 264.749 99.395 270.607L154.39 325.604C154.737 325.951 155.101 326.28 155.48 326.591C155.572 326.666 155.669 326.729 155.762 326.801C156.055 327.031 156.35 327.259 156.66 327.466C156.748 327.524 156.84 327.572 156.928 327.629C157.253 327.837 157.581 328.041 157.922 328.224C157.985 328.258 158.053 328.284 158.116 328.317C158.487 328.509 158.863 328.692 159.251 328.853C159.293 328.871 159.338 328.883 159.38 328.9C159.789 329.065 160.204 329.218 160.629 329.347C160.678 329.362 160.727 329.37 160.775 329.385C161.193 329.508 161.615 329.618 162.047 329.705C162.168 329.729 162.293 329.74 162.415 329.761C162.774 329.824 163.134 329.886 163.502 329.923C163.997 329.973 164.497 329.999 164.999 329.999C165.501 329.999 166.001 329.973 166.496 329.923C166.864 329.886 167.223 329.823 167.583 329.761C167.705 329.739 167.83 329.729 167.951 329.705C168.384 329.619 168.805 329.508 169.223 329.385C169.272 329.371 169.321 329.362 169.369 329.347C169.794 329.218 170.209 329.065 170.618 328.9C170.66 328.882 170.705 328.87 170.747 328.853C171.135 328.692 171.511 328.509 171.882 328.317C171.945 328.284 172.013 328.257 172.076 328.224C172.417 328.04 172.745 327.837 173.07 327.629C173.158 327.573 173.25 327.525 173.338 327.466C173.648 327.259 173.943 327.031 174.236 326.801C174.329 326.729 174.426 326.665 174.518 326.591C174.897 326.279 175.261 325.95 175.608 325.604L230.605 270.607C236.463 264.75 236.463 255.252 230.605 249.394C224.749 243.537 215.251 243.536 209.392 249.394L180 278.787V180H278.788L249.395 209.394C243.537 215.252 243.537 224.749 249.395 230.607C252.324 233.536 256.163 235 260.002 235C263.841 235 267.68 233.535 270.608 230.606L325.603 175.609C325.955 175.259 326.286 174.89 326.602 174.506Z" fill="white"/>
</svg>
