<svg width="24" height="24" viewBox="0 0 24 24" fill="none" xmlns="http://www.w3.org/2000/svg">
<path d="M12.0233 1.99805C9.46332 1.99805 6.90301 2.97469 4.95301 4.92969C1.04301 8.82969 1.04301 15.1703 4.95301 19.0703C8.85301 22.9803 15.1936 22.9803 19.0936 19.0703C23.0036 15.1703 23.0036 8.82969 19.0936 4.92969C17.1436 2.97469 14.5833 1.99805 12.0233 1.99805ZM12.0233 5C13.0233 7.33 14.0233 9.67 15.0233 12C14.0233 14.33 13.0233 16.67 12.0233 19C11.0233 16.67 10.0233 14.33 9.02332 12C10.0233 9.67 11.0233 7.33 12.0233 5ZM13.5839 11.9707L10.494 12C11.004 13.33 11.5133 14.67 12.0233 16C12.5433 14.66 13.0639 13.3107 13.5839 11.9707Z" fill="white"/>
</svg>
