<svg width="26" height="26" viewBox="0 0 26 26" fill="none" xmlns="http://www.w3.org/2000/svg">
<path d="M6.379 0C5.99513 0 5.61095 0.146453 5.31845 0.439453L3.43955 2.31836C2.85355 2.90436 2.85355 3.85445 3.43955 4.43945L8.50009 9.5L12.5001 5.5L7.43955 0.439453C7.14655 0.146453 6.76288 0 6.379 0ZM17.8282 4C17.3165 4 16.8047 4.19544 16.4142 4.58594L10.586 10.4121C9.82516 11.173 9.81165 12.3912 10.5333 13.1758C9.32515 12.7981 7.95744 13.0719 7.00009 14.0293L11.9708 19C12.9274 18.0427 13.2016 16.6749 12.8243 15.4668C13.609 16.1869 14.8257 16.1725 15.586 15.4121L21.4142 9.58594C22.1952 8.80594 22.1952 7.53881 21.4142 6.75781L19.2423 4.58594C18.8518 4.19544 18.34 4 17.8282 4ZM20.5001 13.5L16.5001 17.5L21.5606 22.5605C22.1466 23.1465 23.0967 23.1465 23.6817 22.5605L25.5606 20.6816C26.1466 20.0956 26.1466 19.1455 25.5606 18.5605L20.5001 13.5ZM0.984469 16.9863C0.719594 16.9905 0.467182 17.0995 0.282631 17.2896C0.0980793 17.4796 -0.00353344 17.7351 9.3882e-05 18C9.3882e-05 22.4064 3.59366 26 8.00009 26C8.13261 26.0019 8.26417 25.9774 8.38714 25.928C8.5101 25.8786 8.62203 25.8052 8.7164 25.7122C8.81077 25.6191 8.8857 25.5082 8.93685 25.386C8.988 25.2637 9.01434 25.1325 9.01434 25C9.01434 24.8675 8.988 24.7363 8.93685 24.614C8.8857 24.4918 8.81077 24.3809 8.7164 24.2878C8.62203 24.1948 8.5101 24.1214 8.38714 24.072C8.26417 24.0226 8.13261 23.9981 8.00009 24C4.67453 24 2.00009 21.3256 2.00009 18C2.00193 17.8662 1.97689 17.7334 1.92648 17.6095C1.87606 17.4855 1.80129 17.373 1.70658 17.2784C1.61188 17.1839 1.49917 17.1094 1.37514 17.0592C1.2511 17.009 1.11825 16.9842 0.984469 16.9863ZM4.98447 16.9863C4.71959 16.9905 4.46718 17.0995 4.28263 17.2896C4.09808 17.4796 3.99647 17.7351 4.00009 18C4.00009 20.1973 5.80276 22 8.00009 22C8.13261 22.0019 8.26417 21.9774 8.38714 21.928C8.5101 21.8786 8.62203 21.8052 8.7164 21.7122C8.81077 21.6191 8.8857 21.5082 8.93685 21.386C8.988 21.2637 9.01434 21.1325 9.01434 21C9.01434 20.8675 8.988 20.7363 8.93685 20.614C8.8857 20.4918 8.81077 20.3809 8.7164 20.2878C8.62203 20.1948 8.5101 20.1214 8.38714 20.072C8.26417 20.0226 8.13261 19.9981 8.00009 20C6.88343 20 6.00009 19.1167 6.00009 18C6.00193 17.8662 5.97689 17.7334 5.92648 17.6095C5.87606 17.4855 5.80129 17.373 5.70658 17.2784C5.61188 17.1839 5.49917 17.1094 5.37514 17.0592C5.2511 17.009 5.11825 16.9842 4.98447 16.9863Z" fill="white"/>
</svg>
