<svg width="980" height="980" viewBox="0 0 980 980" fill="none" xmlns="http://www.w3.org/2000/svg">
<path d="M950.9 810.2C968.9 828.2 980 853.1 980 880.5C980 935.4 935.5 980 880.6 980C853.1 980 828.3 968.9 810.3 950.9L599.6 740.2C540.4 775.2 471.6 795.6 397.8 795.6C178.1 795.6 0 617.5 0 397.8C0 178.1 178.1 0 397.8 0C617.5 0 795.6 178.1 795.6 397.8C795.6 471.5 775.2 540.4 740.2 599.6L950.9 810.2ZM397.8 99.4C233 99.4 99.4 233 99.4 397.8C99.4 562.6 233 696.1 397.7 696.1C562.4 696.1 696 562.5 696 397.8C696.1 233 562.6 99.4 397.8 99.4Z" fill="white"/>
</svg>
